<svg width="1072" height="505" viewBox="0 0 1072 505" fill="none" xmlns="http://www.w3.org/2000/svg">
<path d="M596.344 0.538826C584.222 1.3803 560.911 6.06849 551.053 9.55458C521.082 20.2533 509.626 25.7829 486.447 40.8092C475.924 47.6612 461.67 61.9661 454.61 73.0255C453.012 75.6701 450.081 81.8008 448.216 86.8496C444.353 97.3079 444.62 106.925 448.882 117.623C454.078 130.366 467.665 142.867 472.061 138.901C473.526 137.578 472.727 136.376 467.665 132.289C456.209 122.792 452.612 115.46 452.879 102.236C453.411 83.8444 466.999 66.2937 497.37 44.8963C505.363 39.2464 534.802 24.8212 545.325 21.4554C570.768 13.1609 575.297 12.079 596.344 9.31416C606.602 7.87164 611.663 7.75141 618.324 8.71309C623.119 9.43435 629.114 10.2758 631.645 10.5162C645.765 12.1992 656.022 16.1661 667.878 24.9415C684.529 37.2029 694.519 59.4417 694.652 84.5656C694.652 98.8706 691.589 120.629 687.726 134.693C686.926 137.578 685.727 141.906 685.061 144.31C684.529 146.834 683.063 151.042 681.864 153.686C674.804 170.636 672.673 175.084 668.41 183.258C656.688 205.858 631.645 239.035 611.797 258.029C601.806 267.645 581.825 281.109 563.708 290.365C508.826 318.614 458.473 325.106 432.498 307.195C422.64 300.463 419.177 294.092 419.31 282.912C419.31 277.984 419.976 271.733 420.775 269.088C425.438 252.739 439.824 229.539 455.809 212.349C473.393 193.476 477.922 189.629 503.232 171.357L510.425 166.188L509.626 170.155C509.226 172.319 508.427 176.045 507.761 178.329C505.763 186.023 504.031 192.154 502.565 196.962C501.899 199.607 500.834 203.333 500.434 205.377C500.035 207.3 499.102 211.267 498.303 214.032C493.108 235.309 491.909 240.959 490.577 249.854C489.511 257.067 489.911 260.072 491.642 260.072C492.974 260.072 496.704 248.772 499.102 237.833C500.301 232.424 502.166 225.211 503.631 219.802C504.43 217.157 505.629 212.83 506.295 210.185C507.095 207.54 508.293 203.213 508.96 200.568C509.759 197.924 510.958 193.596 511.624 190.951C512.423 188.307 513.622 183.979 514.288 181.335C515.087 178.69 516.153 174.362 516.952 171.718C519.749 161.019 520.549 159.817 526.543 156.451C535.068 151.643 557.447 141.425 563.975 139.141C577.296 134.813 597.543 130.245 603.804 130.245C607.401 130.245 611.397 127.24 609.799 125.798C608.733 124.836 585.688 127.481 575.031 129.885C560.511 133.13 545.592 137.939 532.537 143.709C526.277 146.474 524.012 145.272 526.01 140.223C527.742 136.016 530.539 126.88 534.402 113.416C535.202 110.411 537.2 104.16 538.665 99.5919C540.13 94.9037 542.528 87.3305 543.993 82.7625C545.459 78.0743 547.723 70.9819 549.189 67.015C551.853 59.4417 552.652 48.5026 550.521 48.5026C547.99 48.5026 544.659 55.595 539.731 71.3425C538.798 74.3478 537.599 78.0743 537.067 79.7572C536.001 83.1231 533.337 91.658 531.605 97.1877C531.072 99.111 529.34 104.52 528.008 109.209C526.543 113.777 524.678 119.907 523.879 122.672C520.415 134.813 519.35 138.179 518.284 140.824C517.618 142.387 517.085 144.911 517.085 146.354C517.085 149.479 510.558 155.369 503.365 158.615C501.1 159.697 497.237 162.101 494.839 163.784C492.442 165.467 487.513 169.073 483.65 171.718C455.41 191.432 428.901 223.048 419.576 248.532C415.314 259.952 414.248 265.722 413.582 279.186C412.783 297.337 416.912 308.276 427.569 316.331C434.895 321.74 437.426 323.062 445.286 325.466C466.066 331.477 488.046 330.034 519.483 320.658C541.196 314.167 575.564 296.376 597.677 280.268C609.665 271.612 633.376 249.734 642.168 239.396C657.754 220.884 678.534 188.307 685.594 170.997C691.722 156.451 694.652 148.517 695.718 144.671C696.251 142.387 697.45 138.299 698.249 135.655C702.245 123.514 705.309 93.1005 704.243 77.9541C703.444 66.4139 700.114 52.71 696.517 46.459C695.185 44.2953 694.253 42.0113 694.253 41.4102C694.253 38.7656 682.664 25.1819 675.87 19.6522C665.213 11.1173 654.823 6.42912 636.307 1.86114C628.981 0.0579894 610.598 -0.543064 596.344 0.538826Z" fill="url(#paint0_linear_345_3)"/>
<path d="M1062.84 479.2V503.153H1061.31V479.2H1062.84ZM1065.89 479.2V503.153H1064.37V479.2H1065.89ZM1068.95 479.2V503.153H1067.42V479.2H1068.95ZM1072 479.2V503.153H1070.47V479.2H1072ZM1059.79 479.2V503.153H1058.26V479.2H1059.79Z" fill="white"/>
<path d="M1053.16 417.607C1051.46 417.242 1050.1 417.06 1049.09 417.06C1043.55 417.06 1038.8 420.253 1034.84 426.641C1030.88 433.029 1028.9 440.694 1028.9 449.637C1028.9 458.579 1030.88 466.244 1034.84 472.632C1038.8 479.02 1043.55 482.214 1049.09 482.214C1050.44 482.214 1051.8 481.94 1053.16 481.392V483.993C1052.03 484.449 1050.67 484.677 1049.09 484.677C1043.09 484.677 1037.98 481.255 1033.74 474.412C1029.49 467.568 1027.37 459.309 1027.37 449.637C1027.37 439.873 1029.49 431.614 1033.74 424.862C1037.98 418.018 1043.09 414.596 1049.09 414.596C1050.61 414.596 1051.97 414.778 1053.16 415.143V417.607ZM1053.16 412.679C1051.97 412.314 1050.61 412.132 1049.09 412.132C1042.7 412.132 1037.21 415.828 1032.63 423.219C1028.11 430.519 1025.85 439.325 1025.85 449.637C1025.85 459.948 1028.11 468.8 1032.63 476.191C1037.21 483.491 1042.7 487.141 1049.09 487.141C1050.67 487.141 1052.03 486.913 1053.16 486.457V488.921C1052.03 489.377 1050.67 489.605 1049.09 489.605C1042.25 489.605 1036.39 485.727 1031.53 477.97C1026.72 470.123 1024.32 460.678 1024.32 449.637C1024.32 438.595 1026.72 429.196 1031.53 421.44C1036.39 413.592 1042.25 409.668 1049.09 409.668C1050.61 409.668 1051.97 409.851 1053.16 410.216V412.679ZM1053.16 407.752C1052.08 407.387 1050.73 407.204 1049.09 407.204C1041.85 407.204 1035.66 411.356 1030.51 419.66C1025.37 427.964 1022.79 437.956 1022.79 449.637C1022.79 461.317 1025.37 471.309 1030.51 479.613C1035.66 487.917 1041.85 492.069 1049.09 492.069C1050.61 492.069 1051.97 491.886 1053.16 491.521V493.985C1051.97 494.35 1050.61 494.533 1049.09 494.533C1041.4 494.533 1034.84 490.153 1029.41 481.392C1023.98 472.632 1021.27 462.047 1021.27 449.637C1021.27 437.226 1023.98 426.641 1029.41 417.881C1034.84 409.121 1041.4 404.74 1049.09 404.74C1050.44 404.74 1051.8 404.877 1053.16 405.151V407.752ZM1053.16 402.687C1051.8 402.414 1050.44 402.277 1049.09 402.277C1041 402.277 1034.07 406.931 1028.31 416.238C1022.6 425.455 1019.74 436.588 1019.74 449.637C1019.74 462.686 1022.6 473.864 1028.31 483.172C1034.07 492.388 1041 496.996 1049.09 496.996C1049.99 496.996 1051.35 496.814 1053.16 496.449V498.913C1051.35 499.278 1049.99 499.46 1049.09 499.46C1040.55 499.46 1033.25 494.624 1027.2 484.951C1021.21 475.187 1018.21 463.416 1018.21 449.637C1018.21 435.857 1021.21 424.132 1027.2 414.459C1033.25 404.695 1040.55 399.813 1049.09 399.813C1050.44 399.813 1051.8 399.95 1053.16 400.224V402.687ZM1053.16 397.76C1051.8 397.486 1050.44 397.349 1049.09 397.349C1040.21 397.349 1032.58 402.459 1026.19 412.679C1019.85 422.9 1016.69 435.219 1016.69 449.637C1016.69 463.963 1019.85 476.237 1026.19 486.457C1032.52 496.677 1040.15 501.787 1049.09 501.787C1050.44 501.787 1051.8 501.65 1053.16 501.377V503.84C1051.8 504.114 1050.44 504.251 1049.09 504.251C1039.7 504.251 1031.7 498.958 1025.08 488.373C1018.53 477.697 1015.25 464.784 1015.25 449.637C1015.25 434.489 1018.53 421.577 1025.08 410.9C1031.7 400.224 1039.7 394.885 1049.09 394.885C1050.44 394.885 1051.8 395.022 1053.16 395.296V397.76Z" fill="white"/>
<path d="M969.434 396.116L1007.6 503.155H1005.82L967.652 396.116H969.434ZM965.956 396.116L1004.12 503.155H1002.26L964.175 396.116H965.956ZM962.394 396.116L1000.56 503.155H998.779L960.698 396.116H962.394ZM1002 477.559L1003.53 481.802V396.116H1005.06V486.045L1006.58 490.288V396.116H1008.11V494.668L1009.64 498.775V396.116H1011.16V503.155H1009.3L971.13 396.116H972.826L997.422 464.829V396.116H998.949V469.072L1000.48 473.179V396.116H1002V477.559ZM960.104 404.603L958.577 400.222V503.155H957.051V396.116H958.662L997.083 503.155H995.217L970.791 434.579V503.155H969.264V430.336L967.737 426.092V503.155H966.211V421.849L964.684 417.469V503.155H963.157V413.089L961.631 408.846V503.155H960.104V404.603Z" fill="white"/>
<path d="M942.581 396.116V503.155H941.054V396.116H942.581ZM945.634 396.116V503.155H944.107V396.116H945.634ZM948.687 396.116V503.155H947.161V396.116H948.687ZM951.741 396.116V503.155H950.214V396.116H951.741ZM939.527 396.116V503.155H938.001V396.116H939.527Z" fill="white"/>
<path d="M876.089 396.116L914.255 503.155H912.474L874.308 396.116H876.089ZM872.612 396.116L910.778 503.155H908.912L870.831 396.116H872.612ZM869.049 396.116L907.216 503.155H905.434L867.353 396.116H869.049ZM908.657 477.559L910.184 481.802V396.116H911.711V486.045L913.237 490.288V396.116H914.764V494.668L916.291 498.775V396.116H917.817V503.155H915.951L877.785 396.116H879.481L904.077 464.829V396.116H905.604V469.072L907.131 473.179V396.116H908.657V477.559ZM866.759 404.603L865.233 400.222V503.155H863.706V396.116H865.318L903.738 503.155H901.872L877.446 434.579V503.155H875.919V430.336L874.393 426.092V503.155H872.866V421.849L871.339 417.469V503.155H869.813V413.089L868.286 408.846V503.155H866.759V404.603Z" fill="white"/>
<path d="M825.705 504.251C816.319 504.251 808.318 498.958 801.703 488.373C795.144 477.697 791.864 464.784 791.864 449.637C791.864 434.489 795.144 421.577 801.703 410.9C808.318 400.224 816.319 394.885 825.705 394.885C835.091 394.885 843.092 400.224 849.707 410.9C856.323 421.577 859.63 434.489 859.63 449.637C859.63 464.784 856.323 477.697 849.707 488.373C843.092 498.958 835.091 504.251 825.705 504.251ZM793.306 449.637C793.306 463.963 796.473 476.237 802.805 486.457C809.138 496.677 816.771 501.787 825.705 501.787C834.639 501.787 842.272 496.677 848.605 486.457C854.937 476.237 858.104 463.963 858.104 449.637C858.104 435.219 854.937 422.9 848.605 412.679C842.272 402.459 834.639 397.349 825.705 397.349C816.828 397.349 809.195 402.459 802.805 412.679C796.473 422.9 793.306 435.219 793.306 449.637ZM825.705 499.46C817.167 499.46 809.873 494.624 803.823 484.951C797.83 475.187 794.833 463.416 794.833 449.637C794.833 435.857 797.83 424.132 803.823 414.459C809.873 404.695 817.167 399.813 825.705 399.813C834.243 399.813 841.509 404.695 847.502 414.459C853.552 424.132 856.577 435.857 856.577 449.637C856.577 463.416 853.552 475.187 847.502 484.951C841.509 494.624 834.243 499.46 825.705 499.46ZM796.36 449.637C796.36 462.686 799.215 473.864 804.926 483.172C810.693 492.388 817.619 496.996 825.705 496.996C833.791 496.996 840.689 492.388 846.4 483.172C852.167 473.864 855.05 462.686 855.05 449.637C855.05 436.588 852.167 425.455 846.4 416.238C840.689 406.931 833.791 402.277 825.705 402.277C817.619 402.277 810.693 406.931 804.926 416.238C799.215 425.455 796.36 436.588 796.36 449.637ZM825.705 494.533C818.015 494.533 811.456 490.153 806.028 481.392C800.6 472.632 797.886 462.047 797.886 449.637C797.886 437.226 800.6 426.641 806.028 417.881C811.456 409.121 818.015 404.74 825.705 404.74C833.395 404.74 839.954 409.121 845.382 417.881C850.81 426.641 853.524 437.226 853.524 449.637C853.524 462.047 850.81 472.632 845.382 481.392C839.954 490.153 833.395 494.533 825.705 494.533ZM799.413 449.637C799.413 461.317 801.985 471.309 807.131 479.613C812.276 487.917 818.468 492.069 825.705 492.069C832.942 492.069 839.134 487.917 844.279 479.613C849.424 471.309 851.997 461.317 851.997 449.637C851.997 437.956 849.424 427.964 844.279 419.66C839.134 411.356 832.942 407.204 825.705 407.204C818.468 407.204 812.276 411.356 807.131 419.66C801.985 427.964 799.413 437.956 799.413 449.637ZM825.705 489.605C818.863 489.605 813.011 485.727 808.149 477.97C803.343 470.123 800.939 460.678 800.939 449.637C800.939 438.595 803.343 429.196 808.149 421.44C813.011 413.592 818.863 409.668 825.705 409.668C832.547 409.668 838.37 413.592 843.177 421.44C848.039 429.196 850.471 438.595 850.471 449.637C850.471 460.678 848.039 470.123 843.177 477.97C838.37 485.727 832.547 489.605 825.705 489.605ZM802.466 449.637C802.466 459.948 804.728 468.8 809.251 476.191C813.831 483.491 819.316 487.141 825.705 487.141C832.094 487.141 837.551 483.491 842.074 476.191C846.654 468.8 848.944 459.948 848.944 449.637C848.944 439.325 846.654 430.519 842.074 423.219C837.551 415.828 832.094 412.132 825.705 412.132C819.316 412.132 813.831 415.828 809.251 423.219C804.728 430.519 802.466 439.325 802.466 449.637ZM825.705 484.677C819.711 484.677 814.594 481.255 810.354 474.412C806.113 467.568 803.993 459.309 803.993 449.637C803.993 439.873 806.113 431.614 810.354 424.862C814.594 418.018 819.711 414.596 825.705 414.596C831.755 414.596 836.872 418.018 841.056 424.862C845.297 431.614 847.417 439.873 847.417 449.637C847.417 459.309 845.297 467.568 841.056 474.412C836.872 481.255 831.755 484.677 825.705 484.677ZM805.519 449.637C805.519 458.579 807.498 466.244 811.456 472.632C815.414 479.02 820.164 482.214 825.705 482.214C831.246 482.214 835.996 479.02 839.954 472.632C843.912 466.244 845.891 458.579 845.891 449.637C845.891 440.694 843.912 433.029 839.954 426.641C835.996 420.253 831.246 417.06 825.705 417.06C820.164 417.06 815.414 420.253 811.456 426.641C807.498 433.029 805.519 440.694 805.519 449.637Z" fill="white"/>
<path d="M778.752 396.116V503.155H777.225V396.116H778.752ZM781.805 396.116V503.155H780.278V396.116H781.805ZM784.858 396.116V503.155H783.332V396.116H784.858ZM787.912 396.116V503.155H786.385V396.116H787.912ZM775.698 396.116V503.155H774.172V396.116H775.698Z" fill="white"/>
<path d="M728.437 396.116H768.977V398.58H728.437V396.116ZM728.437 401.044H768.977V403.508H728.437V401.044ZM728.437 405.971H768.977V408.435H728.437V405.971ZM728.437 410.899H768.977V413.363H728.437V410.899ZM744.89 418.153H743.449V503.155H741.922V418.153H728.437V415.827H768.977V418.153H755.577V503.155H754.05V418.153H752.524V503.155H750.997V418.153H749.47V503.155H747.944V418.153H746.417V503.155H744.89V418.153Z" fill="white"/>
<path d="M723.842 417.607C722.146 417.242 720.789 417.06 719.771 417.06C714.23 417.06 709.48 420.253 705.522 426.641C701.564 433.029 699.585 440.694 699.585 449.637C699.585 458.579 701.564 466.244 705.522 472.632C709.48 479.02 714.23 482.214 719.771 482.214C721.128 482.214 722.485 481.94 723.842 481.392V483.993C722.711 484.449 721.354 484.677 719.771 484.677C713.778 484.677 708.66 481.255 704.42 474.412C700.179 467.568 698.059 459.309 698.059 449.637C698.059 439.873 700.179 431.614 704.42 424.862C708.66 418.018 713.778 414.596 719.771 414.596C721.298 414.596 722.655 414.778 723.842 415.143V417.607ZM723.842 412.679C722.655 412.314 721.298 412.132 719.771 412.132C713.382 412.132 707.897 415.828 703.317 423.219C698.794 430.519 696.532 439.325 696.532 449.637C696.532 459.948 698.794 468.8 703.317 476.191C707.897 483.491 713.382 487.141 719.771 487.141C721.354 487.141 722.711 486.913 723.842 486.457V488.921C722.711 489.377 721.354 489.605 719.771 489.605C712.929 489.605 707.077 485.727 702.215 477.97C697.409 470.123 695.005 460.678 695.005 449.637C695.005 438.595 697.409 429.196 702.215 421.44C707.077 413.592 712.929 409.668 719.771 409.668C721.298 409.668 722.655 409.851 723.842 410.216V412.679ZM723.842 407.752C722.768 407.387 721.411 407.204 719.771 407.204C712.534 407.204 706.342 411.356 701.197 419.66C696.052 427.964 693.479 437.956 693.479 449.637C693.479 461.317 696.052 471.309 701.197 479.613C706.342 487.917 712.534 492.069 719.771 492.069C721.298 492.069 722.655 491.886 723.842 491.521V493.985C722.655 494.35 721.298 494.533 719.771 494.533C712.081 494.533 705.522 490.153 700.094 481.392C694.666 472.632 691.952 462.047 691.952 449.637C691.952 437.226 694.666 426.641 700.094 417.881C705.522 409.121 712.081 404.74 719.771 404.74C721.128 404.74 722.485 404.877 723.842 405.151V407.752ZM723.842 402.687C722.485 402.414 721.128 402.277 719.771 402.277C711.685 402.277 704.759 406.931 698.992 416.238C693.281 425.455 690.426 436.588 690.426 449.637C690.426 462.686 693.281 473.864 698.992 483.172C704.759 492.388 711.685 496.996 719.771 496.996C720.676 496.996 722.033 496.814 723.842 496.449V498.913C722.033 499.278 720.676 499.46 719.771 499.46C711.233 499.46 703.939 494.624 697.889 484.951C691.896 475.187 688.899 463.416 688.899 449.637C688.899 435.857 691.896 424.132 697.889 414.459C703.939 404.695 711.233 399.813 719.771 399.813C721.128 399.813 722.485 399.95 723.842 400.224V402.687ZM723.842 397.76C722.485 397.486 721.128 397.349 719.771 397.349C710.894 397.349 703.261 402.459 696.871 412.679C690.539 422.9 687.372 435.219 687.372 449.637C687.372 463.963 690.539 476.237 696.871 486.457C703.204 496.677 710.837 501.787 719.771 501.787C721.128 501.787 722.485 501.65 723.842 501.377V503.84C722.485 504.114 721.128 504.251 719.771 504.251C710.385 504.251 702.384 498.958 695.769 488.373C689.21 477.697 685.93 464.784 685.93 449.637C685.93 434.489 689.21 421.577 695.769 410.9C702.384 400.224 710.385 394.885 719.771 394.885C721.128 394.885 722.485 395.022 723.842 395.296V397.76Z" fill="white"/>
<path d="M681.976 464.829C681.976 475.688 679.573 484.996 674.766 492.752C670.017 500.417 664.25 504.25 657.465 504.25C650.679 504.25 644.884 500.417 640.078 492.752C635.328 484.996 632.953 475.688 632.953 464.829V396.116H634.48V464.829C634.48 475.049 636.713 483.764 641.18 490.973C645.704 498.182 651.132 501.786 657.465 501.786C663.797 501.786 669.197 498.182 673.664 490.973C678.187 483.764 680.449 475.049 680.449 464.829V396.116H681.976V464.829ZM678.922 464.829C678.922 474.319 676.83 482.486 672.646 489.33C668.462 496.083 663.401 499.459 657.465 499.459C651.528 499.459 646.467 496.083 642.283 489.33C638.099 482.486 636.007 474.319 636.007 464.829V396.116H637.533V464.829C637.533 473.68 639.484 481.254 643.385 487.551C647.287 493.847 651.98 496.995 657.465 496.995C663.006 496.995 667.699 493.847 671.544 487.551C675.445 481.254 677.396 473.68 677.396 464.829V396.116H678.922V464.829ZM675.869 464.829C675.869 472.95 674.06 479.931 670.441 485.771C666.822 491.612 662.497 494.532 657.465 494.532C652.432 494.532 648.107 491.612 644.488 485.771C640.869 479.931 639.06 472.95 639.06 464.829V396.116H640.587V464.829C640.587 472.312 642.226 478.745 645.506 484.129C648.785 489.421 652.772 492.068 657.465 492.068C662.101 492.068 666.059 489.421 669.338 484.129C672.674 478.745 674.342 472.312 674.342 464.829V396.116H675.869V464.829ZM672.816 464.829C672.816 471.582 671.289 477.422 668.236 482.349C665.239 487.186 661.649 489.604 657.465 489.604C653.28 489.604 649.662 487.186 646.608 482.349C643.612 477.422 642.113 471.582 642.113 464.829V396.116H643.64V464.829C643.64 470.943 644.997 476.19 647.711 480.57C650.425 484.95 653.676 487.14 657.465 487.14C661.309 487.14 664.561 484.95 667.218 480.57C669.932 476.19 671.289 470.943 671.289 464.829V396.116H672.816V464.829ZM669.762 464.829C669.762 470.304 668.547 475.004 666.116 478.927C663.741 482.76 660.857 484.676 657.465 484.676C654.072 484.676 651.16 482.76 648.729 478.927C646.354 475.004 645.167 470.304 645.167 464.829V396.116H646.693V464.829C646.693 469.574 647.739 473.68 649.831 477.148C651.98 480.524 654.524 482.213 657.465 482.213C660.461 482.213 663.006 480.524 665.098 477.148C667.19 473.68 668.236 469.574 668.236 464.829V396.116H669.762V464.829Z" fill="white"/>
<path d="M604.709 444.297L619.467 503.155H617.855L603.182 444.708C603.578 444.617 604.087 444.48 604.709 444.297ZM607.762 442.792L622.774 503.155H621.078L606.236 443.75C606.632 443.476 607.14 443.157 607.762 442.792ZM610.392 440.738L626.082 503.155H624.386L609.035 441.833C609.6 441.651 610.052 441.286 610.392 440.738ZM618.279 458.943L629.305 503.155H627.694L611.749 439.643C614.01 436.632 615.141 433.301 615.141 429.651C615.141 426.549 614.434 423.857 613.021 421.575C611.664 419.294 610.024 418.153 608.102 418.153H600.808V444.845H601.656L616.159 503.155H614.547L600.808 448.267V503.155H599.281V396.116H608.102C613.812 396.116 618.703 399.401 622.774 405.971C626.845 412.541 628.881 420.435 628.881 429.651C628.881 437.225 627.439 444.023 624.555 450.046C622.576 454.244 620.484 457.209 618.279 458.943ZM617.686 456.753C624.131 450.548 627.354 441.514 627.354 429.651C627.354 420.982 625.488 413.637 621.757 407.614C618.025 401.591 613.473 398.58 608.102 398.58H600.808V401.044H608.102C612.964 401.044 617.12 403.873 620.569 409.53C624.075 415.097 625.828 421.804 625.828 429.651C625.828 440.419 622.944 448.632 617.177 454.289L617.686 456.753ZM616.498 452.099C621.7 446.533 624.301 439.05 624.301 429.651C624.301 422.442 622.69 416.283 619.467 411.173C616.3 406.063 612.512 403.508 608.102 403.508H600.808V405.971H608.102C612.173 405.971 615.622 408.298 618.449 412.952C621.333 417.606 622.774 423.172 622.774 429.651C622.774 438.229 620.513 444.89 615.989 449.636L616.498 452.099ZM615.311 447.445C619.269 443.065 621.248 437.134 621.248 429.651C621.248 423.811 619.947 418.838 617.346 414.732C614.802 410.534 611.72 408.435 608.102 408.435H600.808V410.899H608.102C611.325 410.899 614.067 412.77 616.329 416.511C618.59 420.161 619.721 424.541 619.721 429.651C619.721 436.039 618.081 441.149 614.802 444.982L615.311 447.445ZM614.208 442.655C616.866 439.37 618.194 435.035 618.194 429.651C618.194 425.18 617.205 421.347 615.226 418.153C613.247 414.96 610.872 413.363 608.102 413.363H600.808V415.827H608.102C610.476 415.827 612.484 417.195 614.123 419.933C615.82 422.579 616.668 425.819 616.668 429.651C616.668 434.488 615.65 438.001 613.615 440.191L614.208 442.655ZM591.648 396.116V503.155H590.121V396.116H591.648ZM594.701 396.116V503.155H593.174V396.116H594.701ZM597.754 396.116V503.155H596.228V396.116H597.754ZM588.595 396.116V503.155H587.068V396.116H588.595Z" fill="white"/>
<path d="M541.333 396.116H581.874V398.58H541.333V396.116ZM541.333 401.044H581.874V403.508H541.333V401.044ZM541.333 405.971H581.874V408.435H541.333V405.971ZM541.333 410.899H581.874V413.363H541.333V410.899ZM557.787 418.153H556.345V503.155H554.818V418.153H541.333V415.827H581.874V418.153H568.473V503.155H566.946V418.153H565.42V503.155H563.893V418.153H562.367V503.155H560.84V418.153H559.313V503.155H557.787V418.153Z" fill="white"/>
<path d="M535.968 416.101C534.554 410.535 532.292 406.018 529.183 402.55C526.129 399.083 522.709 397.349 518.92 397.349C513.944 397.349 509.647 400.269 506.029 406.109C502.41 411.858 500.6 418.793 500.6 426.915C500.6 434.58 502.184 441.196 505.35 446.762C508.573 452.237 512.531 455.34 517.224 456.07C519.712 456.435 521.747 457.986 523.33 460.724C524.914 463.37 525.705 466.609 525.705 470.442C525.705 474.366 524.857 477.742 523.161 480.571C521.465 483.309 519.401 484.677 516.969 484.677C513.351 484.677 510.722 481.94 509.082 476.465L510.354 475.233C511.541 479.887 513.747 482.214 516.969 482.214C518.948 482.214 520.645 481.073 522.058 478.792C523.472 476.419 524.179 473.636 524.179 470.442C524.179 467.34 523.5 464.648 522.143 462.366C520.786 460.085 519.146 458.807 517.224 458.534C512.192 457.895 507.923 454.564 504.417 448.542C500.911 442.428 499.159 435.219 499.159 426.915C499.159 418.063 501.081 410.535 504.926 404.33C508.771 398.033 513.436 394.885 518.92 394.885C522.991 394.885 526.666 396.756 529.946 400.497C533.282 404.147 535.713 408.892 537.24 414.733L535.968 416.101ZM530.624 421.029C529.833 416.923 528.363 413.592 526.214 411.037C524.066 408.482 521.634 407.204 518.92 407.204C515.584 407.204 512.701 409.166 510.269 413.09C507.894 416.923 506.707 421.531 506.707 426.915C506.707 432.025 507.781 436.451 509.93 440.192C512.079 443.933 514.708 446.032 517.818 446.488C521.889 447.036 525.225 449.591 527.826 454.154C530.483 458.625 531.812 464.054 531.812 470.442C531.812 477.012 530.342 482.67 527.402 487.415C524.518 492.16 521.041 494.533 516.969 494.533C514.199 494.533 511.654 493.438 509.336 491.248C507.018 488.966 505.237 485.955 503.993 482.214L505.265 480.845C507.81 488.328 511.711 492.069 516.969 492.069C520.645 492.069 523.783 489.97 526.384 485.772C528.985 481.484 530.285 476.373 530.285 470.442C530.285 464.784 529.041 459.902 526.553 455.796C524.122 451.599 521.154 449.272 517.648 448.815C514.199 448.359 511.259 446.032 508.827 441.835C506.453 437.637 505.265 432.664 505.265 426.915C505.265 420.801 506.594 415.6 509.251 411.311C511.909 406.931 515.132 404.74 518.92 404.74C521.86 404.74 524.49 406.155 526.808 408.984C529.183 411.813 530.851 415.417 531.812 419.797L530.624 421.029ZM524.942 426.367C524.829 423.812 524.179 421.622 522.991 419.797C521.86 417.972 520.503 417.06 518.92 417.06C517.28 417.06 515.867 418.063 514.679 420.071C513.492 421.987 512.898 424.268 512.898 426.915C512.898 429.561 513.436 431.842 514.51 433.759C515.641 435.584 516.998 436.588 518.581 436.77C523.839 437.409 528.335 440.831 532.066 447.036C535.968 453.606 537.918 461.408 537.918 470.442C537.918 479.75 535.855 487.734 531.727 494.396C527.656 500.966 522.737 504.251 516.969 504.251C513.238 504.251 509.76 502.791 506.537 499.871C503.371 496.86 500.827 492.845 498.904 487.826L500.261 486.457C503.993 496.677 509.562 501.787 516.969 501.787C522.341 501.787 526.921 498.73 530.709 492.616C534.498 486.502 536.392 479.111 536.392 470.442C536.392 461.956 534.639 454.792 531.133 448.952C527.628 443.112 523.387 439.827 518.411 439.097C516.319 438.823 514.595 437.546 513.238 435.264C511.937 432.983 511.287 430.2 511.287 426.915C511.287 423.447 512.022 420.527 513.492 418.155C515.019 415.782 516.828 414.596 518.92 414.596C520.786 414.596 522.426 415.6 523.839 417.607C525.309 419.615 526.186 422.033 526.469 424.862L524.942 426.367ZM527.826 423.63C527.43 420.345 526.384 417.607 524.687 415.417C522.991 413.227 521.069 412.132 518.92 412.132C516.432 412.132 514.284 413.592 512.474 416.512C510.665 419.432 509.76 422.9 509.76 426.915C509.76 430.747 510.552 434.078 512.135 436.907C513.775 439.644 515.81 441.196 518.242 441.561C522.822 442.2 526.723 445.256 529.946 450.732C533.225 456.115 534.865 462.686 534.865 470.442C534.865 478.381 533.112 485.225 529.607 490.974C526.101 496.631 521.889 499.46 516.969 499.46C510.354 499.46 505.18 494.67 501.449 485.088L502.721 483.582C504.134 487.597 506.113 490.837 508.658 493.301C511.202 495.765 513.973 496.996 516.969 496.996C521.493 496.996 525.338 494.396 528.504 489.194C531.727 483.993 533.338 477.742 533.338 470.442C533.338 463.416 531.897 457.439 529.013 452.511C526.129 447.492 522.482 444.663 518.072 444.025C515.358 443.568 513.04 441.698 511.117 438.413C509.251 435.127 508.318 431.295 508.318 426.915C508.318 422.17 509.336 418.109 511.372 414.733C513.464 411.356 515.98 409.668 518.92 409.668C521.351 409.668 523.5 410.854 525.366 413.227C527.288 415.6 528.561 418.656 529.183 422.398L527.826 423.63ZM533.254 418.702C532.236 413.866 530.398 409.942 527.741 406.931C525.083 403.828 522.143 402.277 518.92 402.277C514.736 402.277 511.146 404.695 508.149 409.531C505.152 414.368 503.654 420.162 503.654 426.915C503.654 433.302 504.983 438.823 507.64 443.477C510.354 448.131 513.634 450.732 517.478 451.279C520.645 451.735 523.302 453.789 525.451 457.439C527.656 460.997 528.759 465.332 528.759 470.442C528.759 475.735 527.599 480.252 525.281 483.993C523.019 487.734 520.249 489.605 516.969 489.605C512.107 489.605 508.629 486.229 506.537 479.476L507.81 477.97C509.732 484.084 512.785 487.141 516.969 487.141C519.797 487.141 522.2 485.499 524.179 482.214C526.214 478.929 527.232 475.005 527.232 470.442C527.232 466.062 526.271 462.275 524.348 459.081C522.482 455.796 520.164 453.971 517.394 453.606C513.153 453.059 509.562 450.23 506.622 445.12C503.739 440.009 502.297 433.941 502.297 426.915C502.297 419.432 503.908 413.044 507.131 407.752C510.354 402.459 514.284 399.813 518.92 399.813C522.482 399.813 525.677 401.455 528.504 404.74C531.331 407.934 533.338 412.132 534.526 417.333L533.254 418.702Z" fill="white"/>
<path d="M453.347 396.116L491.513 503.155H489.732L451.566 396.116H453.347ZM449.869 396.116L488.035 503.155H486.169L448.088 396.116H449.869ZM446.307 396.116L484.473 503.155H482.692L444.611 396.116H446.307ZM485.915 477.559L487.442 481.802V396.116H488.968V486.045L490.495 490.288V396.116H492.022V494.668L493.548 498.775V396.116H495.075V503.155H493.209L455.043 396.116H456.739L481.335 464.829V396.116H482.862V469.072L484.388 473.179V396.116H485.915V477.559ZM444.017 404.603L442.491 400.222V503.155H440.964V396.116H442.575L480.996 503.155H479.13L454.704 434.579V503.155H453.177V430.336L451.65 426.092V503.155H450.124V421.849L448.597 417.469V503.155H447.07V413.089L445.544 408.846V503.155H444.017V404.603Z" fill="white"/>
<path d="M402.963 504.251C393.577 504.251 385.576 498.958 378.961 488.373C372.402 477.697 369.122 464.784 369.122 449.637C369.122 434.489 372.402 421.577 378.961 410.9C385.576 400.224 393.577 394.885 402.963 394.885C412.349 394.885 420.35 400.224 426.965 410.9C433.581 421.577 436.888 434.489 436.888 449.637C436.888 464.784 433.581 477.697 426.965 488.373C420.35 498.958 412.349 504.251 402.963 504.251ZM370.564 449.637C370.564 463.963 373.731 476.237 380.063 486.457C386.396 496.677 394.029 501.787 402.963 501.787C411.897 501.787 419.53 496.677 425.863 486.457C432.195 476.237 435.362 463.963 435.362 449.637C435.362 435.219 432.195 422.9 425.863 412.679C419.53 402.459 411.897 397.349 402.963 397.349C394.086 397.349 386.453 402.459 380.063 412.679C373.731 422.9 370.564 435.219 370.564 449.637ZM402.963 499.46C394.425 499.46 387.131 494.624 381.081 484.951C375.088 475.187 372.091 463.416 372.091 449.637C372.091 435.857 375.088 424.132 381.081 414.459C387.131 404.695 394.425 399.813 402.963 399.813C411.501 399.813 418.766 404.695 424.76 414.459C430.81 424.132 433.835 435.857 433.835 449.637C433.835 463.416 430.81 475.187 424.76 484.951C418.766 494.624 411.501 499.46 402.963 499.46ZM373.617 449.637C373.617 462.686 376.473 473.864 382.184 483.172C387.951 492.388 394.877 496.996 402.963 496.996C411.048 496.996 417.947 492.388 423.657 483.172C429.425 473.864 432.308 462.686 432.308 449.637C432.308 436.588 429.425 425.455 423.657 416.238C417.947 406.931 411.048 402.277 402.963 402.277C394.877 402.277 387.951 406.931 382.184 416.238C376.473 425.455 373.617 436.588 373.617 449.637ZM402.963 494.533C395.273 494.533 388.714 490.153 383.286 481.392C377.858 472.632 375.144 462.047 375.144 449.637C375.144 437.226 377.858 426.641 383.286 417.881C388.714 409.121 395.273 404.74 402.963 404.74C410.653 404.74 417.212 409.121 422.64 417.881C428.068 426.641 430.782 437.226 430.782 449.637C430.782 462.047 428.068 472.632 422.64 481.392C417.212 490.153 410.653 494.533 402.963 494.533ZM376.671 449.637C376.671 461.317 379.243 471.309 384.389 479.613C389.534 487.917 395.725 492.069 402.963 492.069C410.2 492.069 416.392 487.917 421.537 479.613C426.682 471.309 429.255 461.317 429.255 449.637C429.255 437.956 426.682 427.964 421.537 419.66C416.392 411.356 410.2 407.204 402.963 407.204C395.725 407.204 389.534 411.356 384.389 419.66C379.243 427.964 376.671 437.956 376.671 449.637ZM402.963 489.605C396.121 489.605 390.269 485.727 385.407 477.97C380.6 470.123 378.197 460.678 378.197 449.637C378.197 438.595 380.6 429.196 385.407 421.44C390.269 413.592 396.121 409.668 402.963 409.668C409.805 409.668 415.628 413.592 420.434 421.44C425.297 429.196 427.728 438.595 427.728 449.637C427.728 460.678 425.297 470.123 420.434 477.97C415.628 485.727 409.805 489.605 402.963 489.605ZM379.724 449.637C379.724 459.948 381.986 468.8 386.509 476.191C391.089 483.491 396.574 487.141 402.963 487.141C409.352 487.141 414.809 483.491 419.332 476.191C423.912 468.8 426.202 459.948 426.202 449.637C426.202 439.325 423.912 430.519 419.332 423.219C414.809 415.828 409.352 412.132 402.963 412.132C396.574 412.132 391.089 415.828 386.509 423.219C381.986 430.519 379.724 439.325 379.724 449.637ZM402.963 484.677C396.969 484.677 391.852 481.255 387.612 474.412C383.371 467.568 381.251 459.309 381.251 449.637C381.251 439.873 383.371 431.614 387.612 424.862C391.852 418.018 396.969 414.596 402.963 414.596C409.013 414.596 414.13 418.018 418.314 424.862C422.555 431.614 424.675 439.873 424.675 449.637C424.675 459.309 422.555 467.568 418.314 474.412C414.13 481.255 409.013 484.677 402.963 484.677ZM382.777 449.637C382.777 458.579 384.756 466.244 388.714 472.632C392.672 479.02 397.422 482.214 402.963 482.214C408.504 482.214 413.254 479.02 417.212 472.632C421.17 466.244 423.149 458.579 423.149 449.637C423.149 440.694 421.17 433.029 417.212 426.641C413.254 420.253 408.504 417.06 402.963 417.06C397.422 417.06 392.672 420.253 388.714 426.641C384.756 433.029 382.777 440.694 382.777 449.637Z" fill="white"/>
<path d="M365.207 417.607C363.511 417.242 362.154 417.06 361.136 417.06C355.595 417.06 350.845 420.253 346.887 426.641C342.929 433.029 340.95 440.694 340.95 449.637C340.95 458.579 342.929 466.244 346.887 472.632C350.845 479.02 355.595 482.214 361.136 482.214C362.493 482.214 363.85 481.94 365.207 481.392V483.993C364.076 484.449 362.719 484.677 361.136 484.677C355.142 484.677 350.025 481.255 345.785 474.412C341.544 467.568 339.424 459.309 339.424 449.637C339.424 439.873 341.544 431.614 345.785 424.862C350.025 418.018 355.142 414.596 361.136 414.596C362.662 414.596 364.019 414.778 365.207 415.143V417.607ZM365.207 412.679C364.019 412.314 362.662 412.132 361.136 412.132C354.746 412.132 349.262 415.828 344.682 423.219C340.159 430.519 337.897 439.325 337.897 449.637C337.897 459.948 340.159 468.8 344.682 476.191C349.262 483.491 354.746 487.141 361.136 487.141C362.719 487.141 364.076 486.913 365.207 486.457V488.921C364.076 489.377 362.719 489.605 361.136 489.605C354.294 489.605 348.442 485.727 343.579 477.97C338.773 470.123 336.37 460.678 336.37 449.637C336.37 438.595 338.773 429.196 343.579 421.44C348.442 413.592 354.294 409.668 361.136 409.668C362.662 409.668 364.019 409.851 365.207 410.216V412.679ZM365.207 407.752C364.133 407.387 362.775 407.204 361.136 407.204C353.898 407.204 347.707 411.356 342.562 419.66C337.416 427.964 334.844 437.956 334.844 449.637C334.844 461.317 337.416 471.309 342.562 479.613C347.707 487.917 353.898 492.069 361.136 492.069C362.662 492.069 364.019 491.886 365.207 491.521V493.985C364.019 494.35 362.662 494.533 361.136 494.533C353.446 494.533 346.887 490.153 341.459 481.392C336.031 472.632 333.317 462.047 333.317 449.637C333.317 437.226 336.031 426.641 341.459 417.881C346.887 409.121 353.446 404.74 361.136 404.74C362.493 404.74 363.85 404.877 365.207 405.151V407.752ZM365.207 402.687C363.85 402.414 362.493 402.277 361.136 402.277C353.05 402.277 346.124 406.931 340.356 416.238C334.646 425.455 331.79 436.588 331.79 449.637C331.79 462.686 334.646 473.864 340.356 483.172C346.124 492.388 353.05 496.996 361.136 496.996C362.04 496.996 363.397 496.814 365.207 496.449V498.913C363.397 499.278 362.04 499.46 361.136 499.46C352.598 499.46 345.304 494.624 339.254 484.951C333.26 475.187 330.264 463.416 330.264 449.637C330.264 435.857 333.26 424.132 339.254 414.459C345.304 404.695 352.598 399.813 361.136 399.813C362.493 399.813 363.85 399.95 365.207 400.224V402.687ZM365.207 397.76C363.85 397.486 362.493 397.349 361.136 397.349C352.259 397.349 344.625 402.459 338.236 412.679C331.903 422.9 328.737 435.219 328.737 449.637C328.737 463.963 331.903 476.237 338.236 486.457C344.569 496.677 352.202 501.787 361.136 501.787C362.493 501.787 363.85 501.65 365.207 501.377V503.84C363.85 504.114 362.493 504.251 361.136 504.251C351.75 504.251 343.749 498.958 337.134 488.373C330.575 477.697 327.295 464.784 327.295 449.637C327.295 434.489 330.575 421.577 337.134 410.9C343.749 400.224 351.75 394.885 361.136 394.885C362.493 394.885 363.85 395.022 365.207 395.296V397.76Z" fill="white"/>
<path d="M266.741 396.116L304.907 503.155H303.126L264.96 396.116H266.741ZM263.263 396.116L301.429 503.155H299.564L261.482 396.116H263.263ZM259.701 396.116L297.867 503.155H296.086L258.005 396.116H259.701ZM299.309 477.559L300.836 481.802V396.116H302.362V486.045L303.889 490.288V396.116H305.416V494.668L306.942 498.775V396.116H308.469V503.155H306.603L268.437 396.116H270.133L294.729 464.829V396.116H296.256V469.072L297.782 473.179V396.116H299.309V477.559ZM257.411 404.603L255.885 400.222V503.155H254.358V396.116H255.969L294.39 503.155H292.524L268.098 434.579V503.155H266.571V430.336L265.044 426.092V503.155H263.518V421.849L261.991 417.469V503.155H260.464V413.089L258.938 408.846V503.155H257.411V404.603Z" fill="white"/>
<path d="M226.114 444.297L240.871 503.155H239.26L224.587 444.708C224.983 444.617 225.492 444.48 226.114 444.297ZM229.167 442.792L244.179 503.155H242.483L227.64 443.75C228.036 443.476 228.545 443.157 229.167 442.792ZM231.796 440.738L247.487 503.155H245.79L230.439 441.833C231.005 441.651 231.457 441.286 231.796 440.738ZM239.684 458.943L250.71 503.155H249.098L233.153 439.643C235.415 436.632 236.546 433.301 236.546 429.651C236.546 426.549 235.839 423.857 234.425 421.575C233.068 419.294 231.429 418.153 229.506 418.153H222.212V444.845H223.06L237.564 503.155H235.952L222.212 448.267V503.155H220.686V396.116H229.506C235.217 396.116 240.108 399.401 244.179 405.971C248.25 412.541 250.286 420.435 250.286 429.651C250.286 437.225 248.844 444.023 245.96 450.046C243.981 454.244 241.889 457.209 239.684 458.943ZM239.09 456.753C245.536 450.548 248.759 441.514 248.759 429.651C248.759 420.982 246.893 413.637 243.161 407.614C239.429 401.591 234.878 398.58 229.506 398.58H222.212V401.044H229.506C234.369 401.044 238.525 403.873 241.974 409.53C245.479 415.097 247.232 421.804 247.232 429.651C247.232 440.419 244.349 448.632 238.581 454.289L239.09 456.753ZM237.903 452.099C243.105 446.533 245.706 439.05 245.706 429.651C245.706 422.442 244.094 416.283 240.871 411.173C237.705 406.063 233.917 403.508 229.506 403.508H222.212V405.971H229.506C233.577 405.971 237.026 408.298 239.854 412.952C242.737 417.606 244.179 423.172 244.179 429.651C244.179 438.229 241.917 444.89 237.394 449.636L237.903 452.099ZM236.715 447.445C240.673 443.065 242.652 437.134 242.652 429.651C242.652 423.811 241.352 418.838 238.751 414.732C236.207 410.534 233.125 408.435 229.506 408.435H222.212V410.899H229.506C232.729 410.899 235.471 412.77 237.733 416.511C239.995 420.161 241.126 424.541 241.126 429.651C241.126 436.039 239.486 441.149 236.207 444.982L236.715 447.445ZM235.613 442.655C238.27 439.37 239.599 435.035 239.599 429.651C239.599 425.18 238.61 421.347 236.631 418.153C234.652 414.96 232.277 413.363 229.506 413.363H222.212V415.827H229.506C231.881 415.827 233.888 417.195 235.528 419.933C237.224 422.579 238.072 425.819 238.072 429.651C238.072 434.488 237.055 438.001 235.019 440.191L235.613 442.655ZM213.052 396.116V503.155H211.526V396.116H213.052ZM216.106 396.116V503.155H214.579V396.116H216.106ZM219.159 396.116V503.155H217.632V396.116H219.159ZM209.999 396.116V503.155H208.473V396.116H209.999Z" fill="white"/>
<path d="M170.471 504.251C161.085 504.251 153.085 498.958 146.469 488.373C139.91 477.697 136.631 464.784 136.631 449.637C136.631 434.489 139.91 421.577 146.469 410.9C153.085 400.224 161.085 394.885 170.471 394.885C179.857 394.885 187.858 400.224 194.474 410.9C201.089 421.577 204.397 434.489 204.397 449.637C204.397 464.784 201.089 477.697 194.474 488.373C187.858 498.958 179.857 504.251 170.471 504.251ZM138.073 449.637C138.073 463.963 141.239 476.237 147.572 486.457C153.905 496.677 161.538 501.787 170.471 501.787C179.405 501.787 187.038 496.677 193.371 486.457C199.704 476.237 202.87 463.963 202.87 449.637C202.87 435.219 199.704 422.9 193.371 412.679C187.038 402.459 179.405 397.349 170.471 397.349C161.594 397.349 153.961 402.459 147.572 412.679C141.239 422.9 138.073 435.219 138.073 449.637ZM170.471 499.46C161.934 499.46 154.64 494.624 148.59 484.951C142.596 475.187 139.599 463.416 139.599 449.637C139.599 435.857 142.596 424.132 148.59 414.459C154.64 404.695 161.934 399.813 170.471 399.813C179.009 399.813 186.275 404.695 192.269 414.459C198.319 424.132 201.344 435.857 201.344 449.637C201.344 463.416 198.319 475.187 192.269 484.951C186.275 494.624 179.009 499.46 170.471 499.46ZM141.126 449.637C141.126 462.686 143.981 473.864 149.692 483.172C155.459 492.388 162.386 496.996 170.471 496.996C178.557 496.996 185.455 492.388 191.166 483.172C196.933 473.864 199.817 462.686 199.817 449.637C199.817 436.588 196.933 425.455 191.166 416.238C185.455 406.931 178.557 402.277 170.471 402.277C162.386 402.277 155.459 406.931 149.692 416.238C143.981 425.455 141.126 436.588 141.126 449.637ZM170.471 494.533C162.782 494.533 156.223 490.153 150.795 481.392C145.367 472.632 142.653 462.047 142.653 449.637C142.653 437.226 145.367 426.641 150.795 417.881C156.223 409.121 162.782 404.74 170.471 404.74C178.161 404.74 184.72 409.121 190.148 417.881C195.576 426.641 198.29 437.226 198.29 449.637C198.29 462.047 195.576 472.632 190.148 481.392C184.72 490.153 178.161 494.533 170.471 494.533ZM144.179 449.637C144.179 461.317 146.752 471.309 151.897 479.613C157.043 487.917 163.234 492.069 170.471 492.069C177.709 492.069 183.9 487.917 189.046 479.613C194.191 471.309 196.764 461.317 196.764 449.637C196.764 437.956 194.191 427.964 189.046 419.66C183.9 411.356 177.709 407.204 170.471 407.204C163.234 407.204 157.043 411.356 151.897 419.66C146.752 427.964 144.179 437.956 144.179 449.637ZM170.471 489.605C163.63 489.605 157.778 485.727 152.915 477.97C148.109 470.123 145.706 460.678 145.706 449.637C145.706 438.595 148.109 429.196 152.915 421.44C157.778 413.592 163.63 409.668 170.471 409.668C177.313 409.668 183.137 413.592 187.943 421.44C192.806 429.196 195.237 438.595 195.237 449.637C195.237 460.678 192.806 470.123 187.943 477.97C183.137 485.727 177.313 489.605 170.471 489.605ZM147.233 449.637C147.233 459.948 149.494 468.8 154.018 476.191C158.598 483.491 164.082 487.141 170.471 487.141C176.861 487.141 182.317 483.491 186.84 476.191C191.42 468.8 193.71 459.948 193.71 449.637C193.71 439.325 191.42 430.519 186.84 423.219C182.317 415.828 176.861 412.132 170.471 412.132C164.082 412.132 158.598 415.828 154.018 423.219C149.494 430.519 147.233 439.325 147.233 449.637ZM170.471 484.677C164.478 484.677 159.361 481.255 155.12 474.412C150.88 467.568 148.759 459.309 148.759 449.637C148.759 439.873 150.88 431.614 155.12 424.862C159.361 418.018 164.478 414.596 170.471 414.596C176.521 414.596 181.639 418.018 185.823 424.862C190.063 431.614 192.184 439.873 192.184 449.637C192.184 459.309 190.063 467.568 185.823 474.412C181.639 481.255 176.521 484.677 170.471 484.677ZM150.286 449.637C150.286 458.579 152.265 466.244 156.223 472.632C160.181 479.02 164.93 482.214 170.471 482.214C176.013 482.214 180.762 479.02 184.72 472.632C188.678 466.244 190.657 458.579 190.657 449.637C190.657 440.694 188.678 433.029 184.72 426.641C180.762 420.253 176.013 417.06 170.471 417.06C164.93 417.06 160.181 420.253 156.223 426.641C152.265 433.029 150.286 440.694 150.286 449.637Z" fill="white"/>
<path d="M108.161 448.404V450.867H111.638C114.465 450.867 116.868 452.464 118.847 455.658C120.826 458.852 121.816 462.73 121.816 467.293C121.816 471.764 120.826 475.597 118.847 478.791C116.868 481.893 114.465 483.444 111.638 483.444H108.161V485.908H111.638C114.805 485.908 117.519 484.083 119.78 480.433C122.098 476.783 123.258 472.403 123.258 467.293C123.258 462.183 122.098 457.757 119.78 454.016C117.519 450.274 114.805 448.404 111.638 448.404H108.161ZM108.161 453.331V480.981H111.638C114.013 480.981 116.048 479.657 117.745 477.011C119.441 474.365 120.289 471.125 120.289 467.293C120.289 463.46 119.441 460.175 117.745 457.438C116.048 454.7 114.013 453.331 111.638 453.331H108.161ZM124.869 429.651C124.869 423.811 123.569 418.838 120.968 414.732C118.423 410.534 115.313 408.435 111.638 408.435H108.161V410.899H111.638C114.861 410.899 117.603 412.77 119.865 416.511C122.183 420.161 123.342 424.541 123.342 429.651C123.342 434.214 122.409 438.229 120.544 441.697C119.187 444.343 117.632 446.168 115.879 447.172C118.536 448.632 120.685 451.232 122.325 454.974C124.021 458.624 124.869 462.73 124.869 467.293C124.869 473.133 123.569 478.106 120.968 482.213C118.423 486.319 115.313 488.372 111.638 488.372H108.161V490.836H111.638C115.709 490.836 119.158 488.555 121.985 483.992C124.869 479.338 126.311 473.772 126.311 467.293C126.311 458.35 123.964 451.597 119.271 447.035C123.003 442.928 124.869 437.134 124.869 429.651ZM127.922 429.651C127.922 422.442 126.311 416.283 123.088 411.173C119.922 406.063 116.105 403.508 111.638 403.508H108.161V405.971H111.638C115.766 405.971 119.243 408.298 122.07 412.952C124.954 417.515 126.396 423.081 126.396 429.651C126.396 433.666 125.774 437.499 124.53 441.149C123.682 443.704 122.749 445.62 121.731 446.898C125.859 452.191 127.922 458.989 127.922 467.293C127.922 474.502 126.339 480.661 123.173 485.771C120.006 490.79 116.162 493.3 111.638 493.3H108.161V495.763H111.638C116.557 495.763 120.741 492.98 124.191 487.414C127.696 481.848 129.449 475.14 129.449 467.293C129.449 459.354 127.611 452.51 123.936 446.761C126.594 441.56 127.922 435.856 127.922 429.651ZM130.976 429.651C130.976 421.074 129.081 413.773 125.293 407.751C121.561 401.637 117.01 398.58 111.638 398.58H108.161V401.044H111.638C116.557 401.044 120.741 403.873 124.191 409.53C127.696 415.097 129.449 421.804 129.449 429.651C129.449 435.126 128.318 440.784 126.056 446.624C129.279 452.738 130.891 459.628 130.891 467.293C130.891 475.871 128.997 483.171 125.208 489.193C121.477 495.216 116.953 498.227 111.638 498.227H108.161V500.691H111.638C117.405 500.691 122.325 497.452 126.396 490.973C130.467 484.403 132.502 476.509 132.502 467.293C132.502 459.354 130.976 452.419 127.922 446.487C129.958 441.377 130.976 435.765 130.976 429.651ZM108.161 418.153V441.149H111.638C113.617 441.149 115.285 440.008 116.642 437.727C118.056 435.446 118.762 432.754 118.762 429.651C118.762 426.549 118.056 423.857 116.642 421.575C115.229 419.294 113.561 418.153 111.638 418.153H108.161ZM108.161 413.363V415.827H111.638C114.013 415.827 116.048 417.195 117.745 419.933C119.441 422.579 120.289 425.819 120.289 429.651C120.289 433.484 119.441 436.769 117.745 439.507C116.048 442.153 114.013 443.476 111.638 443.476H108.161V445.94H111.638C114.465 445.94 116.868 444.343 118.847 441.149C120.826 437.955 121.816 434.123 121.816 429.651C121.816 425.18 120.826 421.347 118.847 418.153C116.868 414.96 114.465 413.363 111.638 413.363H108.161ZM129.703 446.35C132.531 452.647 133.944 459.628 133.944 467.293C133.944 477.239 131.767 485.726 127.413 492.752C123.06 499.687 117.801 503.155 111.638 503.155H106.634V396.116H111.638C117.405 396.116 122.325 399.401 126.396 405.971C130.467 412.541 132.502 420.435 132.502 429.651C132.502 435.491 131.569 441.058 129.703 446.35ZM99.0009 396.116V503.155H97.4743V396.116H99.0009ZM102.054 396.116V503.155H100.528V396.116H102.054ZM105.108 396.116V503.155H103.581V396.116H105.108ZM95.9476 396.116V503.155H94.421V396.116H95.9476Z" fill="white"/>
<path d="M52.464 396.116V503.155H50.9374V396.116H52.464ZM61.6239 396.116V503.155H60.0972V396.116H61.6239ZM58.5706 396.116V503.155H57.044V396.116H58.5706ZM55.5173 396.116V503.155H53.9907V396.116H55.5173ZM64.6772 455.658V458.122H83.0817V460.586H64.6772V480.981H89.4427V483.444H64.6772V485.908H89.4427V488.372H64.6772V490.836H89.4427V493.3H64.6772V495.763H89.4427V498.227H64.6772V500.691H89.4427V503.155H63.1505V396.116H89.4427V398.58H64.6772V401.044H89.4427V403.508H64.6772V405.971H89.4427V408.435H64.6772V410.899H89.4427V413.363H64.6772V415.827H89.4427V418.153H64.6772V438.411H83.0817V440.875H64.6772V443.339H83.0817V445.803H64.6772V448.267H83.0817V450.731H64.6772V453.194H83.0817V455.658H64.6772Z" fill="white"/>
<path d="M13.7398 498.227V500.691C22.5038 500.417 29.9674 495.353 36.1306 485.498C42.2937 475.642 45.3752 463.688 45.3752 449.636C45.3752 435.583 42.2937 423.629 36.1306 413.773C29.9674 403.918 22.5038 398.854 13.7398 398.58V401.044C22.1646 401.317 29.2889 406.108 35.1128 415.416C40.9367 424.724 43.8486 436.13 43.8486 449.636C43.8486 463.141 40.9367 474.547 35.1128 483.855C29.2889 493.163 22.1646 497.954 13.7398 498.227ZM13.7398 493.3V495.763C21.7123 495.49 28.4691 490.927 34.0102 482.076C39.5514 473.224 42.3219 462.411 42.3219 449.636C42.3219 436.86 39.5514 426.047 34.0102 417.195C28.4691 408.344 21.7123 403.781 13.7398 403.508V405.971C21.3165 406.245 27.7057 410.58 32.9076 418.975C38.1661 427.279 40.7953 437.499 40.7953 449.636C40.7953 461.681 38.1661 471.901 32.9076 480.296C27.6492 488.691 21.2599 493.026 13.7398 493.3ZM13.7398 488.372V490.836C20.8641 490.562 26.8859 486.501 31.8051 478.654C36.7808 470.715 39.2687 461.042 39.2687 449.636C39.2687 438.229 36.7808 428.602 31.8051 420.754C26.8859 412.815 20.8641 408.709 13.7398 408.435V410.899C20.4683 411.173 26.1508 415.005 30.7873 422.397C35.4238 429.788 37.742 438.868 37.742 449.636C37.742 460.312 35.3955 469.392 30.7025 476.874C26.066 484.266 20.4118 488.098 13.7398 488.372ZM13.7398 483.444V485.908C20.016 485.634 25.331 482.03 29.6847 475.095C34.0385 468.16 36.2154 459.673 36.2154 449.636C36.2154 439.598 34.0385 431.111 29.6847 424.176C25.331 417.241 20.016 413.637 13.7398 413.363V415.827C19.6767 416.1 24.6525 419.477 28.667 425.956C32.738 432.343 34.7735 440.237 34.7735 449.636C34.7735 459.034 32.738 466.973 28.667 473.452C24.5959 479.84 19.6202 483.171 13.7398 483.444ZM13.7398 418.153V480.981C19.1678 480.707 23.7761 477.604 27.5644 471.673C31.3527 465.65 33.2469 458.304 33.2469 449.636C33.2469 440.967 31.3527 433.666 27.5644 427.735C23.7761 421.712 19.1678 418.519 13.7398 418.153ZM12.2131 503.155V396.116H13.7398C23.0127 396.116 30.8439 401.317 37.2331 411.72C43.679 422.032 46.9019 434.67 46.9019 449.636C46.9019 464.601 43.6507 477.285 37.1483 487.688C30.7025 497.999 22.8996 503.155 13.7398 503.155H12.2131ZM4.57994 396.116V503.155H3.05329V396.116H4.57994ZM7.63323 396.116V503.155H6.10657V396.116H7.63323ZM10.6865 396.116V503.155H9.15986V396.116H10.6865ZM1.52665 396.116V503.155H0V396.116H1.52665Z" fill="white"/>
<defs>
<linearGradient id="paint0_linear_345_3" x1="704.457" y1="164.535" x2="413.486" y2="164.535" gradientUnits="userSpaceOnUse">
<stop stop-color="#B68170"/>
<stop offset="0.25" stop-color="#D19B8A"/>
<stop offset="0.5" stop-color="#E3AD9B"/>
<stop offset="0.75" stop-color="#966151"/>
<stop offset="1" stop-color="#996454"/>
</linearGradient>
</defs>
</svg>
