<svg width="1258" height="165" viewBox="0 0 1258 165" fill="none" xmlns="http://www.w3.org/2000/svg">
<path d="M93.6379 0.270168C87.4305 0.692091 75.4932 3.0428 70.4454 4.79077C55.0974 10.1552 49.2311 12.9279 37.362 20.4622C31.9731 23.8979 24.6743 31.0705 21.059 36.6158C20.2405 37.9419 18.7398 41.0159 17.7848 43.5474C15.8066 48.7913 15.943 53.6133 18.1258 58.9777C20.7862 65.3668 27.7439 71.6354 29.9949 69.6463C30.7453 68.9833 30.336 68.3806 27.7439 66.3312C21.8776 61.5695 20.0358 57.8928 20.1722 51.2626C20.4451 42.0405 27.4028 33.2404 42.9555 22.5115C47.0482 19.6786 62.1234 12.4457 67.5122 10.758C80.5409 6.59901 82.8602 6.05654 93.6379 4.67022C98.8903 3.94693 101.482 3.88664 104.893 4.36884C107.349 4.73049 110.418 5.15241 111.714 5.27296C118.945 6.11681 124.197 8.10588 130.268 12.5059C138.795 18.6539 143.911 29.8048 143.979 42.4022C143.979 49.5749 142.41 60.4846 140.432 67.5367C140.023 68.9833 139.409 71.1532 139.068 72.3587C138.795 73.6245 138.045 75.7341 137.431 77.0601C133.815 85.5589 132.724 87.789 130.541 91.8877C124.538 103.219 111.714 119.855 101.551 129.379C96.4346 134.201 86.2026 140.951 76.9256 145.592C48.8218 159.757 23.0372 163.012 9.73562 154.031C4.68785 150.656 2.9143 147.461 2.98252 141.855C2.98252 139.384 3.32358 136.25 3.73286 134.924C6.12032 126.726 13.4874 115.093 21.6729 106.474C30.6771 97.0111 32.9963 95.0823 45.9568 85.9205L49.6404 83.3287L49.2311 85.3178C49.0264 86.4027 48.6172 88.2712 48.2761 89.4165C47.2529 93.274 46.3661 96.348 45.6158 98.759C45.2747 100.085 44.729 101.954 44.5244 102.978C44.3197 103.943 43.8422 105.932 43.4329 107.318C40.7726 117.987 40.1587 120.82 39.4766 125.28C38.9309 128.896 39.1355 130.403 40.0223 130.403C40.7044 130.403 42.6144 124.737 43.8422 119.252C44.4561 116.54 45.4111 112.924 46.1615 110.211C46.5708 108.885 47.1847 106.715 47.5257 105.389C47.935 104.063 48.5489 101.893 48.89 100.567C49.2993 99.2412 49.9132 97.0713 50.2543 95.7453C50.6635 94.4192 51.2775 92.2494 51.6185 90.9233C52.0278 89.5973 52.5735 87.4274 52.9828 86.1013C54.4153 80.7369 54.8246 80.1341 57.8941 78.4465C62.2598 76.0355 73.7196 70.9121 77.0621 69.7669C83.8834 67.597 94.2518 65.3066 97.4578 65.3066C99.2996 65.3066 101.346 63.7997 100.527 63.0764C99.9817 62.5942 88.1808 63.9203 82.7238 65.1257C75.2885 66.7532 67.6486 69.1641 60.9637 72.0573C57.7577 73.4437 56.5981 72.8409 57.6213 70.3094C58.5081 68.1998 59.9405 63.6189 61.9187 56.8681C62.328 55.3612 63.3512 52.227 64.1016 49.9365C64.8519 47.5858 66.0797 43.7885 66.8301 41.4981C67.5804 39.1474 68.7401 35.5911 69.4904 33.6021C70.8547 29.8048 71.2639 24.3198 70.1725 24.3198C68.8765 24.3198 67.1711 27.876 64.6473 35.772C64.1698 37.2788 63.5558 39.1474 63.283 39.9912C62.7373 41.6789 61.373 45.9584 60.4863 48.731C60.2134 49.6954 59.3266 52.4078 58.6445 54.7585C57.8942 57.0489 56.9392 60.1229 56.5299 61.5093C54.7563 67.597 54.2106 69.2847 53.6649 70.6107C53.3239 71.3943 53.051 72.6601 53.051 73.3834C53.051 74.9505 49.7086 77.904 46.0251 79.5314C44.8654 80.0739 42.8872 81.2794 41.6594 82.1232C40.4316 82.9671 37.9077 84.7753 35.9295 86.1013C21.4683 95.9864 7.89387 111.839 3.11894 124.617C0.936121 130.343 0.390415 133.236 0.0493493 139.987C-0.35993 149.088 1.75468 154.573 7.21174 158.612C10.9635 161.324 12.2595 161.987 16.2841 163.193C26.9254 166.206 38.1805 165.483 54.2788 160.782C65.3976 157.527 82.9966 148.606 94.32 140.529C100.459 136.19 112.601 125.22 117.103 120.036C125.084 110.754 135.725 94.4193 139.341 85.7397C142.479 78.4465 143.979 74.4683 144.525 72.5395C144.798 71.3943 145.412 69.345 145.821 68.0189C147.867 61.9312 149.436 46.6817 148.891 39.0871C148.481 33.3007 146.776 26.4294 144.934 23.2951C144.252 22.2102 143.775 21.0649 143.775 20.7636C143.775 19.4375 137.84 12.6265 134.361 9.85385C128.904 5.57435 123.583 3.22363 114.102 0.933192C110.35 0.0290712 100.937 -0.272304 93.6379 0.270168Z" fill="url(#paint0_linear_359_4)"/>
<path d="M1248.84 111.314V135.268H1247.31V111.314H1248.84ZM1251.89 111.314V135.268H1250.37V111.314H1251.89ZM1254.95 111.314V135.268H1253.42V111.314H1254.95ZM1258 111.314V135.268H1256.47V111.314H1258ZM1245.79 111.314V135.268H1244.26V111.314H1245.79Z" fill="white"/>
<path d="M1239.16 49.7218C1237.46 49.3568 1236.1 49.1743 1235.09 49.1743C1229.55 49.1743 1224.8 52.3681 1220.84 58.7558C1216.88 65.1434 1214.9 72.8086 1214.9 81.7513C1214.9 90.694 1216.88 98.3592 1220.84 104.747C1224.8 111.135 1229.55 114.328 1235.09 114.328C1236.44 114.328 1237.8 114.055 1239.16 113.507V116.108C1238.03 116.564 1236.67 116.792 1235.09 116.792C1229.09 116.792 1223.98 113.37 1219.74 106.526C1215.49 99.6824 1213.37 91.4241 1213.37 81.7513C1213.37 71.9873 1215.49 63.729 1219.74 56.9763C1223.98 50.1324 1229.09 46.7105 1235.09 46.7105C1236.61 46.7105 1237.97 46.893 1239.16 47.258V49.7218ZM1239.16 44.7942C1237.97 44.4292 1236.61 44.2467 1235.09 44.2467C1228.7 44.2467 1223.21 47.9424 1218.63 55.3338C1214.11 62.634 1211.85 71.4398 1211.85 81.7513C1211.85 92.0628 1214.11 100.914 1218.63 108.306C1223.21 115.606 1228.7 119.256 1235.09 119.256C1236.67 119.256 1238.03 119.028 1239.16 118.572V121.035C1238.03 121.492 1236.67 121.72 1235.09 121.72C1228.25 121.72 1222.39 117.842 1217.53 110.085C1212.72 102.237 1210.32 92.7928 1210.32 81.7513C1210.32 70.7098 1212.72 61.3108 1217.53 53.5544C1222.39 45.7067 1228.25 41.7829 1235.09 41.7829C1236.61 41.7829 1237.97 41.9654 1239.16 42.3304V44.7942ZM1239.16 39.8666C1238.08 39.5015 1236.73 39.319 1235.09 39.319C1227.85 39.319 1221.66 43.471 1216.51 51.775C1211.37 60.0789 1208.79 70.071 1208.79 81.7513C1208.79 93.4316 1211.37 103.424 1216.51 111.728C1221.66 120.032 1227.85 124.184 1235.09 124.184C1236.61 124.184 1237.97 124.001 1239.16 123.636V126.1C1237.97 126.465 1236.61 126.647 1235.09 126.647C1227.4 126.647 1220.84 122.267 1215.41 113.507C1209.98 104.747 1207.27 94.1616 1207.27 81.7513C1207.27 69.341 1209.98 58.7558 1215.41 49.9956C1220.84 41.2353 1227.4 36.8552 1235.09 36.8552C1236.44 36.8552 1237.8 36.9921 1239.16 37.2659V39.8666ZM1239.16 34.8021C1237.8 34.5283 1236.44 34.3914 1235.09 34.3914C1227 34.3914 1220.07 39.0453 1214.31 48.353C1208.6 57.5695 1205.74 68.7023 1205.74 81.7513C1205.74 94.8004 1208.6 105.979 1214.31 115.287C1220.07 124.503 1227 129.111 1235.09 129.111C1235.99 129.111 1237.35 128.929 1239.16 128.564V131.028C1237.35 131.393 1235.99 131.575 1235.09 131.575C1226.55 131.575 1219.25 126.739 1213.2 117.066C1207.21 107.302 1204.21 95.5304 1204.21 81.7513C1204.21 67.9722 1207.21 56.2463 1213.2 46.5736C1219.25 36.8096 1226.55 31.9276 1235.09 31.9276C1236.44 31.9276 1237.8 32.0645 1239.16 32.3383V34.8021ZM1239.16 29.8744C1237.8 29.6007 1236.44 29.4638 1235.09 29.4638C1226.21 29.4638 1218.58 34.5739 1212.19 44.7942C1205.85 55.0144 1202.69 67.3335 1202.69 81.7513C1202.69 96.0779 1205.85 108.351 1212.19 118.572C1218.52 128.792 1226.15 133.902 1235.09 133.902C1236.44 133.902 1237.8 133.765 1239.16 133.491V135.955C1237.8 136.229 1236.44 136.366 1235.09 136.366C1225.7 136.366 1217.7 131.073 1211.08 120.488C1204.53 109.811 1201.25 96.8992 1201.25 81.7513C1201.25 66.6035 1204.53 53.6913 1211.08 43.0148C1217.7 32.3383 1225.7 27 1235.09 27C1236.44 27 1237.8 27.1369 1239.16 27.4106V29.8744Z" fill="white"/>
<path d="M1155.43 28.2308L1193.6 135.27H1191.82L1153.65 28.2308H1155.43ZM1151.96 28.2308L1190.12 135.27H1188.26L1150.18 28.2308H1151.96ZM1148.39 28.2308L1186.56 135.27H1184.78L1146.7 28.2308H1148.39ZM1188 109.673L1189.53 113.917V28.2308H1191.06V118.16L1192.58 122.403V28.2308H1194.11V126.783L1195.64 130.89V28.2308H1197.16V135.27H1195.3L1157.13 28.2308H1158.83L1183.42 96.9438V28.2308H1184.95V101.187L1186.48 105.293V28.2308H1188V109.673ZM1146.1 36.7173L1144.58 32.3372V135.27H1143.05V28.2308H1144.66L1183.08 135.27H1181.22L1156.79 66.6936V135.27H1155.26V62.4504L1153.74 58.2072V135.27H1152.21V53.964L1150.68 49.5839V135.27H1149.16V45.2037L1147.63 40.9605V135.27H1146.1V36.7173Z" fill="white"/>
<path d="M1128.58 28.2308V135.27H1127.05V28.2308H1128.58ZM1131.63 28.2308V135.27H1130.11V28.2308H1131.63ZM1134.69 28.2308V135.27H1133.16V28.2308H1134.69ZM1137.74 28.2308V135.27H1136.21V28.2308H1137.74ZM1125.53 28.2308V135.27H1124V28.2308H1125.53Z" fill="white"/>
<path d="M1062.09 28.2308L1100.26 135.27H1098.47L1060.31 28.2308H1062.09ZM1058.61 28.2308L1096.78 135.27H1094.91L1056.83 28.2308H1058.61ZM1055.05 28.2308L1093.22 135.27H1091.43L1053.35 28.2308H1055.05ZM1094.66 109.673L1096.18 113.917V28.2308H1097.71V118.16L1099.24 122.403V28.2308H1100.76V126.783L1102.29 130.89V28.2308H1103.82V135.27H1101.95L1063.79 28.2308H1065.48L1090.08 96.9438V28.2308H1091.6V101.187L1093.13 105.293V28.2308H1094.66V109.673ZM1052.76 36.7173L1051.23 32.3372V135.27H1049.71V28.2308H1051.32L1089.74 135.27H1087.87L1063.45 66.6936V135.27H1061.92V62.4504L1060.39 58.2072V135.27H1058.87V53.964L1057.34 49.5839V135.27H1055.81V45.2037L1054.29 40.9605V135.27H1052.76V36.7173Z" fill="white"/>
<path d="M1011.7 136.366C1002.32 136.366 994.318 131.073 987.703 120.488C981.144 109.811 977.864 96.8992 977.864 81.7513C977.864 66.6035 981.144 53.6913 987.703 43.0148C994.318 32.3383 1002.32 27 1011.7 27C1021.09 27 1029.09 32.3383 1035.71 43.0148C1042.32 53.6913 1045.63 66.6035 1045.63 81.7513C1045.63 96.8992 1042.32 109.811 1035.71 120.488C1029.09 131.073 1021.09 136.366 1011.7 136.366ZM979.306 81.7513C979.306 96.0779 982.473 108.351 988.805 118.572C995.138 128.792 1002.77 133.902 1011.7 133.902C1020.64 133.902 1028.27 128.792 1034.6 118.572C1040.94 108.351 1044.1 96.0779 1044.1 81.7513C1044.1 67.3335 1040.94 55.0144 1034.6 44.7942C1028.27 34.5739 1020.64 29.4638 1011.7 29.4638C1002.83 29.4638 995.195 34.5739 988.805 44.7942C982.473 55.0144 979.306 67.3335 979.306 81.7513ZM1011.7 131.575C1003.17 131.575 995.873 126.739 989.823 117.066C983.83 107.302 980.833 95.5304 980.833 81.7513C980.833 67.9722 983.83 56.2463 989.823 46.5736C995.873 36.8096 1003.17 31.9276 1011.7 31.9276C1020.24 31.9276 1027.51 36.8096 1033.5 46.5736C1039.55 56.2463 1042.58 67.9722 1042.58 81.7513C1042.58 95.5304 1039.55 107.302 1033.5 117.066C1027.51 126.739 1020.24 131.575 1011.7 131.575ZM982.36 81.7513C982.36 94.8004 985.215 105.979 990.926 115.287C996.693 124.503 1003.62 129.111 1011.7 129.111C1019.79 129.111 1026.69 124.503 1032.4 115.287C1038.17 105.979 1041.05 94.8004 1041.05 81.7513C1041.05 68.7023 1038.17 57.5695 1032.4 48.353C1026.69 39.0453 1019.79 34.3914 1011.7 34.3914C1003.62 34.3914 996.693 39.0453 990.926 48.353C985.215 57.5695 982.36 68.7023 982.36 81.7513ZM1011.7 126.647C1004.02 126.647 997.456 122.267 992.028 113.507C986.6 104.747 983.886 94.1616 983.886 81.7513C983.886 69.341 986.6 58.7558 992.028 49.9956C997.456 41.2353 1004.02 36.8552 1011.7 36.8552C1019.39 36.8552 1025.95 41.2353 1031.38 49.9956C1036.81 58.7558 1039.52 69.341 1039.52 81.7513C1039.52 94.1616 1036.81 104.747 1031.38 113.507C1025.95 122.267 1019.39 126.647 1011.7 126.647ZM985.413 81.7513C985.413 93.4316 987.985 103.424 993.131 111.728C998.276 120.032 1004.47 124.184 1011.7 124.184C1018.94 124.184 1025.13 120.032 1030.28 111.728C1035.42 103.424 1038 93.4316 1038 81.7513C1038 70.071 1035.42 60.0789 1030.28 51.775C1025.13 43.471 1018.94 39.319 1011.7 39.319C1004.47 39.319 998.276 43.471 993.131 51.775C987.985 60.0789 985.413 70.071 985.413 81.7513ZM1011.7 121.72C1004.86 121.72 999.011 117.842 994.149 110.085C989.343 102.237 986.939 92.7928 986.939 81.7513C986.939 70.7098 989.343 61.3108 994.149 53.5544C999.011 45.7067 1004.86 41.7829 1011.7 41.7829C1018.55 41.7829 1024.37 45.7067 1029.18 53.5544C1034.04 61.3108 1036.47 70.7098 1036.47 81.7513C1036.47 92.7928 1034.04 102.237 1029.18 110.085C1024.37 117.842 1018.55 121.72 1011.7 121.72ZM988.466 81.7513C988.466 92.0628 990.728 100.914 995.251 108.306C999.831 115.606 1005.32 119.256 1011.7 119.256C1018.09 119.256 1023.55 115.606 1028.07 108.306C1032.65 100.914 1034.94 92.0628 1034.94 81.7513C1034.94 71.4398 1032.65 62.634 1028.07 55.3338C1023.55 47.9424 1018.09 44.2467 1011.7 44.2467C1005.32 44.2467 999.831 47.9424 995.251 55.3338C990.728 62.634 988.466 71.4398 988.466 81.7513ZM1011.7 116.792C1005.71 116.792 1000.59 113.37 996.354 106.526C992.113 99.6824 989.993 91.4241 989.993 81.7513C989.993 71.9873 992.113 63.729 996.354 56.9763C1000.59 50.1324 1005.71 46.7105 1011.7 46.7105C1017.76 46.7105 1022.87 50.1324 1027.06 56.9763C1031.3 63.729 1033.42 71.9873 1033.42 81.7513C1033.42 91.4241 1031.3 99.6824 1027.06 106.526C1022.87 113.37 1017.76 116.792 1011.7 116.792ZM991.519 81.7513C991.519 90.694 993.498 98.3592 997.456 104.747C1001.41 111.135 1006.16 114.328 1011.7 114.328C1017.25 114.328 1022 111.135 1025.95 104.747C1029.91 98.3592 1031.89 90.694 1031.89 81.7513C1031.89 72.8086 1029.91 65.1434 1025.95 58.7558C1022 52.3681 1017.25 49.1743 1011.7 49.1743C1006.16 49.1743 1001.41 52.3681 997.456 58.7558C993.498 65.1434 991.519 72.8086 991.519 81.7513Z" fill="white"/>
<path d="M964.752 28.2308V135.27H963.225V28.2308H964.752ZM967.805 28.2308V135.27H966.278V28.2308H967.805ZM970.858 28.2308V135.27H969.332V28.2308H970.858ZM973.912 28.2308V135.27H972.385V28.2308H973.912ZM961.698 28.2308V135.27H960.172V28.2308H961.698Z" fill="white"/>
<path d="M914.437 28.2308H954.977V30.6946H914.437V28.2308ZM914.437 33.1585H954.977V35.6223H914.437V33.1585ZM914.437 38.0861H954.977V40.5499H914.437V38.0861ZM914.437 43.0137H954.977V45.4775H914.437V43.0137ZM930.89 50.2682H929.449V135.27H927.922V50.2682H914.437V47.9413H954.977V50.2682H941.577V135.27H940.05V50.2682H938.524V135.27H936.997V50.2682H935.47V135.27H933.944V50.2682H932.417V135.27H930.89V50.2682Z" fill="white"/>
<path d="M909.842 49.7218C908.146 49.3568 906.789 49.1743 905.771 49.1743C900.23 49.1743 895.48 52.3681 891.522 58.7558C887.564 65.1434 885.585 72.8086 885.585 81.7513C885.585 90.694 887.564 98.3592 891.522 104.747C895.48 111.135 900.23 114.328 905.771 114.328C907.128 114.328 908.485 114.055 909.842 113.507V116.108C908.711 116.564 907.354 116.792 905.771 116.792C899.778 116.792 894.66 113.37 890.42 106.526C886.179 99.6824 884.059 91.4241 884.059 81.7513C884.059 71.9873 886.179 63.729 890.42 56.9763C894.66 50.1324 899.778 46.7105 905.771 46.7105C907.298 46.7105 908.655 46.893 909.842 47.258V49.7218ZM909.842 44.7942C908.655 44.4292 907.298 44.2467 905.771 44.2467C899.382 44.2467 893.897 47.9424 889.317 55.3338C884.794 62.634 882.532 71.4398 882.532 81.7513C882.532 92.0628 884.794 100.914 889.317 108.306C893.897 115.606 899.382 119.256 905.771 119.256C907.354 119.256 908.711 119.028 909.842 118.572V121.035C908.711 121.492 907.354 121.72 905.771 121.72C898.929 121.72 893.077 117.842 888.215 110.085C883.409 102.237 881.005 92.7928 881.005 81.7513C881.005 70.7098 883.409 61.3108 888.215 53.5544C893.077 45.7067 898.929 41.7829 905.771 41.7829C907.298 41.7829 908.655 41.9654 909.842 42.3304V44.7942ZM909.842 39.8666C908.768 39.5015 907.411 39.319 905.771 39.319C898.534 39.319 892.342 43.471 887.197 51.775C882.052 60.0789 879.479 70.071 879.479 81.7513C879.479 93.4316 882.052 103.424 887.197 111.728C892.342 120.032 898.534 124.184 905.771 124.184C907.298 124.184 908.655 124.001 909.842 123.636V126.1C908.655 126.465 907.298 126.647 905.771 126.647C898.081 126.647 891.522 122.267 886.094 113.507C880.666 104.747 877.952 94.1616 877.952 81.7513C877.952 69.341 880.666 58.7558 886.094 49.9956C891.522 41.2353 898.081 36.8552 905.771 36.8552C907.128 36.8552 908.485 36.9921 909.842 37.2659V39.8666ZM909.842 34.8021C908.485 34.5283 907.128 34.3914 905.771 34.3914C897.685 34.3914 890.759 39.0453 884.992 48.353C879.281 57.5695 876.426 68.7023 876.426 81.7513C876.426 94.8004 879.281 105.979 884.992 115.287C890.759 124.503 897.685 129.111 905.771 129.111C906.676 129.111 908.033 128.929 909.842 128.564V131.028C908.033 131.393 906.676 131.575 905.771 131.575C897.233 131.575 889.939 126.739 883.889 117.066C877.896 107.302 874.899 95.5304 874.899 81.7513C874.899 67.9722 877.896 56.2463 883.889 46.5736C889.939 36.8096 897.233 31.9276 905.771 31.9276C907.128 31.9276 908.485 32.0645 909.842 32.3383V34.8021ZM909.842 29.8744C908.485 29.6007 907.128 29.4638 905.771 29.4638C896.894 29.4638 889.261 34.5739 882.871 44.7942C876.539 55.0144 873.372 67.3335 873.372 81.7513C873.372 96.0779 876.539 108.351 882.871 118.572C889.204 128.792 896.837 133.902 905.771 133.902C907.128 133.902 908.485 133.765 909.842 133.491V135.955C908.485 136.229 907.128 136.366 905.771 136.366C896.385 136.366 888.384 131.073 881.769 120.488C875.21 109.811 871.93 96.8992 871.93 81.7513C871.93 66.6035 875.21 53.6913 881.769 43.0148C888.384 32.3383 896.385 27 905.771 27C907.128 27 908.485 27.1369 909.842 27.4106V29.8744Z" fill="white"/>
<path d="M867.976 96.9438C867.976 107.803 865.573 117.11 860.766 124.867C856.017 132.532 850.25 136.365 843.465 136.365C836.679 136.365 830.884 132.532 826.078 124.867C821.328 117.11 818.953 107.803 818.953 96.9438V28.2308H820.48V96.9438C820.48 107.164 822.713 115.879 827.18 123.088C831.704 130.296 837.132 133.901 843.465 133.901C849.797 133.901 855.197 130.296 859.664 123.088C864.187 115.879 866.449 107.164 866.449 96.9438V28.2308H867.976V96.9438ZM864.922 96.9438C864.922 106.434 862.83 114.601 858.646 121.445C854.462 128.198 849.401 131.574 843.465 131.574C837.528 131.574 832.467 128.198 828.283 121.445C824.099 114.601 822.007 106.434 822.007 96.9438V28.2308H823.533V96.9438C823.533 105.795 825.484 113.369 829.385 119.666C833.287 125.962 837.98 129.11 843.465 129.11C849.006 129.11 853.699 125.962 857.544 119.666C861.445 113.369 863.396 105.795 863.396 96.9438V28.2308H864.922V96.9438ZM861.869 96.9438C861.869 105.065 860.06 112.046 856.441 117.886C852.822 123.726 848.497 126.646 843.465 126.646C838.432 126.646 834.107 123.726 830.488 117.886C826.869 112.046 825.06 105.065 825.06 96.9438V28.2308H826.587V96.9438C826.587 104.426 828.226 110.86 831.506 116.244C834.785 121.536 838.772 124.183 843.465 124.183C848.101 124.183 852.059 121.536 855.338 116.244C858.674 110.86 860.342 104.426 860.342 96.9438V28.2308H861.869V96.9438ZM858.816 96.9438C858.816 103.696 857.289 109.537 854.236 114.464C851.239 119.301 847.649 121.719 843.465 121.719C839.28 121.719 835.662 119.301 832.608 114.464C829.612 109.537 828.113 103.696 828.113 96.9438V28.2308H829.64V96.9438C829.64 103.058 830.997 108.305 833.711 112.685C836.425 117.065 839.676 119.255 843.465 119.255C847.309 119.255 850.561 117.065 853.218 112.685C855.932 108.305 857.289 103.058 857.289 96.9438V28.2308H858.816V96.9438ZM855.762 96.9438C855.762 102.419 854.547 107.118 852.116 111.042C849.741 114.875 846.857 116.791 843.465 116.791C840.072 116.791 837.16 114.875 834.729 111.042C832.354 107.118 831.167 102.419 831.167 96.9438V28.2308H832.693V96.9438C832.693 101.689 833.739 105.795 835.831 109.263C837.98 112.639 840.524 114.327 843.465 114.327C846.461 114.327 849.006 112.639 851.098 109.263C853.19 105.795 854.236 101.689 854.236 96.9438V28.2308H855.762V96.9438Z" fill="white"/>
<path d="M790.709 76.412L805.467 135.27H803.855L789.182 76.8226C789.578 76.7314 790.087 76.5945 790.709 76.412ZM793.762 74.9063L808.774 135.27H807.078L792.236 75.8645C792.632 75.5907 793.14 75.2714 793.762 74.9063ZM796.392 72.8532L812.082 135.27H810.386L795.035 73.9482C795.6 73.7657 796.052 73.4007 796.392 72.8532ZM804.279 91.058L815.305 135.27H813.694L797.749 71.7581C800.01 68.7468 801.141 65.4161 801.141 61.766C801.141 58.6634 800.434 55.9715 799.021 53.6902C797.664 51.4089 796.024 50.2682 794.102 50.2682H786.808V76.9595H787.656L802.159 135.27H800.547L786.808 80.3815V135.27H785.281V28.2308H794.102C799.812 28.2308 804.703 31.5159 808.774 38.0861C812.845 44.6562 814.881 52.5496 814.881 61.766C814.881 69.34 813.439 76.1382 810.555 82.1609C808.576 86.3585 806.484 89.3242 804.279 91.058ZM803.686 88.8679C810.131 82.6628 813.354 73.6288 813.354 61.766C813.354 53.0971 811.488 45.7513 807.757 39.7286C804.025 33.706 799.473 30.6946 794.102 30.6946H786.808V33.1585H794.102C798.964 33.1585 803.12 35.9873 806.569 41.6449C810.075 47.2113 811.828 53.9183 811.828 61.766C811.828 72.5338 808.944 80.7465 803.177 86.4041L803.686 88.8679ZM802.498 84.2141C807.7 78.6477 810.301 71.165 810.301 61.766C810.301 54.5571 808.69 48.3976 805.467 43.2874C802.3 38.1773 798.512 35.6223 794.102 35.6223H786.808V38.0861H794.102C798.173 38.0861 801.622 40.413 804.449 45.0669C807.333 49.7207 808.774 55.2871 808.774 61.766C808.774 70.3437 806.513 77.0051 801.989 81.7503L802.498 84.2141ZM801.311 79.5602C805.269 75.1801 807.248 69.2487 807.248 61.766C807.248 55.9259 805.947 50.9526 803.346 46.8463C800.802 42.6487 797.72 40.5499 794.102 40.5499H786.808V43.0137H794.102C797.325 43.0137 800.067 44.8844 802.329 48.6257C804.59 52.2758 805.721 56.6559 805.721 61.766C805.721 68.1537 804.081 73.2638 800.802 77.0964L801.311 79.5602ZM800.208 74.7695C802.866 71.4844 804.194 67.1499 804.194 61.766C804.194 57.2947 803.205 53.4621 801.226 50.2682C799.247 47.0744 796.872 45.4775 794.102 45.4775H786.808V47.9413H794.102C796.476 47.9413 798.484 49.3101 800.123 52.0477C801.82 54.694 802.668 57.9334 802.668 61.766C802.668 66.6024 801.65 70.1156 799.615 72.3056L800.208 74.7695ZM777.648 28.2308V135.27H776.121V28.2308H777.648ZM780.701 28.2308V135.27H779.174V28.2308H780.701ZM783.754 28.2308V135.27H782.228V28.2308H783.754ZM774.595 28.2308V135.27H773.068V28.2308H774.595Z" fill="white"/>
<path d="M727.333 28.2308H767.874V30.6946H727.333V28.2308ZM727.333 33.1585H767.874V35.6223H727.333V33.1585ZM727.333 38.0861H767.874V40.5499H727.333V38.0861ZM727.333 43.0137H767.874V45.4775H727.333V43.0137ZM743.787 50.2682H742.345V135.27H740.818V50.2682H727.333V47.9413H767.874V50.2682H754.473V135.27H752.946V50.2682H751.42V135.27H749.893V50.2682H748.367V135.27H746.84V50.2682H745.313V135.27H743.787V50.2682Z" fill="white"/>
<path d="M721.968 48.2161C720.554 42.6498 718.292 38.1328 715.183 34.6652C712.129 31.1976 708.709 29.4638 704.92 29.4638C699.944 29.4638 695.647 32.3839 692.029 38.224C688.41 43.9729 686.6 50.9081 686.6 59.0295C686.6 66.6947 688.184 73.3105 691.35 78.8769C694.573 84.352 698.531 87.4546 703.224 88.1846C705.712 88.5496 707.747 90.1009 709.33 92.8385C710.914 95.4848 711.705 98.7242 711.705 102.557C711.705 106.481 710.857 109.857 709.161 112.686C707.465 115.423 705.401 116.792 702.969 116.792C699.351 116.792 696.722 114.055 695.082 108.579L696.354 107.348C697.541 112.001 699.747 114.328 702.969 114.328C704.948 114.328 706.645 113.188 708.058 110.906C709.472 108.534 710.179 105.751 710.179 102.557C710.179 99.4543 709.5 96.7623 708.143 94.481C706.786 92.1997 705.146 90.9222 703.224 90.6484C698.192 90.0097 693.923 86.6789 690.417 80.6563C686.911 74.5424 685.159 67.3335 685.159 59.0295C685.159 50.1781 687.081 42.6497 690.926 36.4446C694.771 30.1482 699.436 27 704.92 27C708.991 27 712.666 28.8707 715.946 32.612C719.282 36.2621 721.713 41.0072 723.24 46.8474L721.968 48.2161ZM716.624 53.1438C715.833 49.0374 714.363 45.7067 712.214 43.1516C710.066 40.5966 707.634 39.319 704.92 39.319C701.584 39.319 698.701 41.281 696.269 45.2048C693.894 49.0374 692.707 53.6456 692.707 59.0295C692.707 64.1396 693.781 68.5654 695.93 72.3067C698.079 76.0481 700.708 78.1469 703.818 78.6031C707.889 79.1506 711.225 81.7057 713.826 86.2683C716.483 90.7397 717.812 96.1692 717.812 102.557C717.812 109.127 716.342 114.785 713.402 119.53C710.518 124.275 707.041 126.647 702.969 126.647C700.199 126.647 697.654 125.552 695.336 123.362C693.018 121.081 691.237 118.07 689.993 114.328L691.265 112.96C693.81 120.442 697.711 124.184 702.969 124.184C706.645 124.184 709.783 122.085 712.384 117.887C714.985 113.598 716.285 108.488 716.285 102.557C716.285 96.8992 715.041 92.0172 712.553 87.9109C710.122 83.7133 707.154 81.3863 703.648 80.93C700.199 80.4738 697.259 78.1469 694.827 73.9493C692.453 69.7517 691.265 64.7784 691.265 59.0295C691.265 52.9156 692.594 47.7143 695.251 43.4254C697.909 39.0453 701.132 36.8552 704.92 36.8552C707.86 36.8552 710.49 38.2696 712.808 41.0985C715.183 43.9273 716.851 47.5317 717.812 51.9119L716.624 53.1438ZM710.942 58.482C710.829 55.9269 710.179 53.7369 708.991 51.9119C707.86 50.0868 706.503 49.1743 704.92 49.1743C703.28 49.1743 701.867 50.1781 700.679 52.1856C699.492 54.1019 698.898 56.3832 698.898 59.0295C698.898 61.6758 699.436 63.9571 700.51 65.8734C701.641 67.6985 702.998 68.7023 704.581 68.8848C709.839 69.5235 714.335 72.9455 718.066 79.1506C721.968 85.7208 723.918 93.5229 723.918 102.557C723.918 111.865 721.855 119.849 717.727 126.511C713.656 133.081 708.737 136.366 702.969 136.366C699.238 136.366 695.76 134.906 692.537 131.986C689.371 128.974 686.827 124.959 684.904 119.94L686.261 118.572C689.993 128.792 695.562 133.902 702.969 133.902C708.341 133.902 712.921 130.845 716.709 124.731C720.498 118.617 722.392 111.226 722.392 102.557C722.392 94.0704 720.639 86.9071 717.133 81.0669C713.628 75.2268 709.387 71.9417 704.411 71.2117C702.319 70.9379 700.595 69.6604 699.238 67.3791C697.937 65.0978 697.287 62.3146 697.287 59.0295C697.287 55.5619 698.022 52.6419 699.492 50.2693C701.019 47.8968 702.828 46.7105 704.92 46.7105C706.786 46.7105 708.426 47.7143 709.839 49.7218C711.309 51.7293 712.186 54.1475 712.469 56.9763L710.942 58.482ZM713.826 55.7444C713.43 52.4594 712.384 49.7218 710.687 47.5317C708.991 45.3417 707.069 44.2467 704.92 44.2467C702.432 44.2467 700.284 45.7067 698.474 48.6268C696.665 51.5468 695.76 55.0144 695.76 59.0295C695.76 62.8621 696.552 66.1928 698.135 69.0216C699.775 71.7592 701.81 73.3105 704.242 73.6755C708.822 74.3143 712.723 77.3712 715.946 82.8463C719.225 88.2302 720.865 94.8004 720.865 102.557C720.865 110.496 719.112 117.34 715.607 123.089C712.101 128.746 707.889 131.575 702.969 131.575C696.354 131.575 691.18 126.784 687.449 117.203L688.721 115.697C690.134 119.712 692.113 122.952 694.658 125.416C697.202 127.879 699.973 129.111 702.969 129.111C707.493 129.111 711.338 126.511 714.504 121.309C717.727 116.108 719.338 109.857 719.338 102.557C719.338 95.5304 717.897 89.5534 715.013 84.6258C712.129 79.6069 708.482 76.7781 704.072 76.1393C701.358 75.683 699.04 73.8124 697.117 70.5273C695.251 67.2422 694.318 63.4096 694.318 59.0295C694.318 54.2844 695.336 50.2237 697.372 46.8474C699.464 43.471 701.98 41.7829 704.92 41.7829C707.351 41.7829 709.5 42.9691 711.366 45.3417C713.288 47.7142 714.561 50.7712 715.183 54.5125L713.826 55.7444ZM719.254 50.8168C718.236 45.9805 716.398 42.0566 713.741 39.0453C711.083 35.9427 708.143 34.3914 704.92 34.3914C700.736 34.3914 697.146 36.8096 694.149 41.646C691.152 46.4823 689.654 52.2769 689.654 59.0295C689.654 65.4172 690.983 70.9379 693.64 75.5918C696.354 80.2457 699.634 82.8464 703.478 83.3939C706.645 83.8501 709.302 85.9033 711.451 89.5534C713.656 93.1122 714.759 97.4467 714.759 102.557C714.759 107.849 713.599 112.366 711.281 116.108C709.019 119.849 706.249 121.72 702.969 121.72C698.107 121.72 694.629 118.343 692.537 111.591L693.81 110.085C695.732 116.199 698.785 119.256 702.969 119.256C705.797 119.256 708.2 117.613 710.179 114.328C712.214 111.043 713.232 107.119 713.232 102.557C713.232 98.1767 712.271 94.3898 710.348 91.1959C708.482 87.9108 706.164 86.0858 703.394 85.7208C699.153 85.1733 695.562 82.3445 692.622 77.2343C689.739 72.1242 688.297 66.0559 688.297 59.0295C688.297 51.5468 689.908 45.1592 693.131 39.8666C696.354 34.5739 700.284 31.9276 704.92 31.9276C708.482 31.9276 711.677 33.5702 714.504 36.8552C717.331 40.0491 719.338 44.2467 720.526 49.448L719.254 50.8168Z" fill="white"/>
<path d="M639.347 28.2308L677.513 135.27H675.732L637.566 28.2308H639.347ZM635.869 28.2308L674.035 135.27H672.169L634.088 28.2308H635.869ZM632.307 28.2308L670.473 135.27H668.692L630.611 28.2308H632.307ZM671.915 109.673L673.442 113.917V28.2308H674.968V118.16L676.495 122.403V28.2308H678.022V126.783L679.548 130.89V28.2308H681.075V135.27H679.209L641.043 28.2308H642.739L667.335 96.9438V28.2308H668.862V101.187L670.388 105.293V28.2308H671.915V109.673ZM630.017 36.7173L628.491 32.3372V135.27H626.964V28.2308H628.575L666.996 135.27H665.13L640.704 66.6936V135.27H639.177V62.4504L637.65 58.2072V135.27H636.124V53.964L634.597 49.5839V135.27H633.07V45.2037L631.544 40.9605V135.27H630.017V36.7173Z" fill="white"/>
<path d="M588.963 136.366C579.577 136.366 571.576 131.073 564.961 120.488C558.402 109.811 555.122 96.8992 555.122 81.7513C555.122 66.6035 558.402 53.6913 564.961 43.0148C571.576 32.3383 579.577 27 588.963 27C598.349 27 606.35 32.3383 612.965 43.0148C619.581 53.6913 622.888 66.6035 622.888 81.7513C622.888 96.8992 619.581 109.811 612.965 120.488C606.35 131.073 598.349 136.366 588.963 136.366ZM556.564 81.7513C556.564 96.0779 559.731 108.351 566.063 118.572C572.396 128.792 580.029 133.902 588.963 133.902C597.897 133.902 605.53 128.792 611.863 118.572C618.195 108.351 621.362 96.0779 621.362 81.7513C621.362 67.3335 618.195 55.0144 611.863 44.7942C605.53 34.5739 597.897 29.4638 588.963 29.4638C580.086 29.4638 572.453 34.5739 566.063 44.7942C559.731 55.0144 556.564 67.3335 556.564 81.7513ZM588.963 131.575C580.425 131.575 573.131 126.739 567.081 117.066C561.088 107.302 558.091 95.5304 558.091 81.7513C558.091 67.9722 561.088 56.2463 567.081 46.5736C573.131 36.8096 580.425 31.9276 588.963 31.9276C597.501 31.9276 604.766 36.8096 610.76 46.5736C616.81 56.2463 619.835 67.9722 619.835 81.7513C619.835 95.5304 616.81 107.302 610.76 117.066C604.766 126.739 597.501 131.575 588.963 131.575ZM559.617 81.7513C559.617 94.8004 562.473 105.979 568.184 115.287C573.951 124.503 580.877 129.111 588.963 129.111C597.048 129.111 603.947 124.503 609.657 115.287C615.425 105.979 618.308 94.8004 618.308 81.7513C618.308 68.7023 615.425 57.5695 609.657 48.353C603.947 39.0453 597.048 34.3914 588.963 34.3914C580.877 34.3914 573.951 39.0453 568.184 48.353C562.473 57.5695 559.617 68.7023 559.617 81.7513ZM588.963 126.647C581.273 126.647 574.714 122.267 569.286 113.507C563.858 104.747 561.144 94.1616 561.144 81.7513C561.144 69.341 563.858 58.7558 569.286 49.9956C574.714 41.2353 581.273 36.8552 588.963 36.8552C596.653 36.8552 603.212 41.2353 608.64 49.9956C614.068 58.7558 616.782 69.341 616.782 81.7513C616.782 94.1616 614.068 104.747 608.64 113.507C603.212 122.267 596.653 126.647 588.963 126.647ZM562.671 81.7513C562.671 93.4316 565.243 103.424 570.389 111.728C575.534 120.032 581.725 124.184 588.963 124.184C596.2 124.184 602.392 120.032 607.537 111.728C612.682 103.424 615.255 93.4316 615.255 81.7513C615.255 70.071 612.682 60.0789 607.537 51.775C602.392 43.471 596.2 39.319 588.963 39.319C581.725 39.319 575.534 43.471 570.389 51.775C565.243 60.0789 562.671 70.071 562.671 81.7513ZM588.963 121.72C582.121 121.72 576.269 117.842 571.407 110.085C566.6 102.237 564.197 92.7928 564.197 81.7513C564.197 70.7098 566.6 61.3108 571.407 53.5544C576.269 45.7067 582.121 41.7829 588.963 41.7829C595.805 41.7829 601.628 45.7067 606.434 53.5544C611.297 61.3108 613.728 70.7098 613.728 81.7513C613.728 92.7928 611.297 102.237 606.434 110.085C601.628 117.842 595.805 121.72 588.963 121.72ZM565.724 81.7513C565.724 92.0628 567.986 100.914 572.509 108.306C577.089 115.606 582.574 119.256 588.963 119.256C595.352 119.256 600.809 115.606 605.332 108.306C609.912 100.914 612.202 92.0628 612.202 81.7513C612.202 71.4398 609.912 62.634 605.332 55.3338C600.809 47.9424 595.352 44.2467 588.963 44.2467C582.574 44.2467 577.089 47.9424 572.509 55.3338C567.986 62.634 565.724 71.4398 565.724 81.7513ZM588.963 116.792C582.969 116.792 577.852 113.37 573.612 106.526C569.371 99.6824 567.251 91.4241 567.251 81.7513C567.251 71.9873 569.371 63.729 573.612 56.9763C577.852 50.1324 582.969 46.7105 588.963 46.7105C595.013 46.7105 600.13 50.1324 604.314 56.9763C608.555 63.729 610.675 71.9873 610.675 81.7513C610.675 91.4241 608.555 99.6824 604.314 106.526C600.13 113.37 595.013 116.792 588.963 116.792ZM568.777 81.7513C568.777 90.694 570.756 98.3592 574.714 104.747C578.672 111.135 583.422 114.328 588.963 114.328C594.504 114.328 599.254 111.135 603.212 104.747C607.17 98.3592 609.149 90.694 609.149 81.7513C609.149 72.8086 607.17 65.1434 603.212 58.7558C599.254 52.3681 594.504 49.1743 588.963 49.1743C583.422 49.1743 578.672 52.3681 574.714 58.7558C570.756 65.1434 568.777 72.8086 568.777 81.7513Z" fill="white"/>
<path d="M551.207 49.7218C549.511 49.3568 548.154 49.1743 547.136 49.1743C541.595 49.1743 536.845 52.3681 532.887 58.7558C528.929 65.1434 526.95 72.8086 526.95 81.7513C526.95 90.694 528.929 98.3592 532.887 104.747C536.845 111.135 541.595 114.328 547.136 114.328C548.493 114.328 549.85 114.055 551.207 113.507V116.108C550.076 116.564 548.719 116.792 547.136 116.792C541.142 116.792 536.025 113.37 531.785 106.526C527.544 99.6824 525.424 91.4241 525.424 81.7513C525.424 71.9873 527.544 63.729 531.785 56.9763C536.025 50.1324 541.142 46.7105 547.136 46.7105C548.662 46.7105 550.019 46.893 551.207 47.258V49.7218ZM551.207 44.7942C550.019 44.4292 548.662 44.2467 547.136 44.2467C540.746 44.2467 535.262 47.9424 530.682 55.3338C526.159 62.634 523.897 71.4398 523.897 81.7513C523.897 92.0628 526.159 100.914 530.682 108.306C535.262 115.606 540.746 119.256 547.136 119.256C548.719 119.256 550.076 119.028 551.207 118.572V121.035C550.076 121.492 548.719 121.72 547.136 121.72C540.294 121.72 534.442 117.842 529.579 110.085C524.773 102.237 522.37 92.7928 522.37 81.7513C522.37 70.7098 524.773 61.3108 529.579 53.5544C534.442 45.7067 540.294 41.7829 547.136 41.7829C548.662 41.7829 550.019 41.9654 551.207 42.3304V44.7942ZM551.207 39.8666C550.133 39.5015 548.775 39.319 547.136 39.319C539.898 39.319 533.707 43.471 528.562 51.775C523.416 60.0789 520.844 70.071 520.844 81.7513C520.844 93.4316 523.416 103.424 528.562 111.728C533.707 120.032 539.898 124.184 547.136 124.184C548.662 124.184 550.019 124.001 551.207 123.636V126.1C550.019 126.465 548.662 126.647 547.136 126.647C539.446 126.647 532.887 122.267 527.459 113.507C522.031 104.747 519.317 94.1616 519.317 81.7513C519.317 69.341 522.031 58.7558 527.459 49.9956C532.887 41.2353 539.446 36.8552 547.136 36.8552C548.493 36.8552 549.85 36.9921 551.207 37.2659V39.8666ZM551.207 34.8021C549.85 34.5283 548.493 34.3914 547.136 34.3914C539.05 34.3914 532.124 39.0453 526.356 48.353C520.646 57.5695 517.79 68.7023 517.79 81.7513C517.79 94.8004 520.646 105.979 526.356 115.287C532.124 124.503 539.05 129.111 547.136 129.111C548.04 129.111 549.397 128.929 551.207 128.564V131.028C549.397 131.393 548.04 131.575 547.136 131.575C538.598 131.575 531.304 126.739 525.254 117.066C519.26 107.302 516.264 95.5304 516.264 81.7513C516.264 67.9722 519.26 56.2463 525.254 46.5736C531.304 36.8096 538.598 31.9276 547.136 31.9276C548.493 31.9276 549.85 32.0645 551.207 32.3383V34.8021ZM551.207 29.8744C549.85 29.6007 548.493 29.4638 547.136 29.4638C538.259 29.4638 530.625 34.5739 524.236 44.7942C517.903 55.0144 514.737 67.3335 514.737 81.7513C514.737 96.0779 517.903 108.351 524.236 118.572C530.569 128.792 538.202 133.902 547.136 133.902C548.493 133.902 549.85 133.765 551.207 133.491V135.955C549.85 136.229 548.493 136.366 547.136 136.366C537.75 136.366 529.749 131.073 523.134 120.488C516.575 109.811 513.295 96.8992 513.295 81.7513C513.295 66.6035 516.575 53.6913 523.134 43.0148C529.749 32.3383 537.75 27 547.136 27C548.493 27 549.85 27.1369 551.207 27.4106V29.8744Z" fill="white"/>
<path d="M452.741 28.2308L490.907 135.27H489.126L450.96 28.2308H452.741ZM449.263 28.2308L487.429 135.27H485.564L447.482 28.2308H449.263ZM445.701 28.2308L483.867 135.27H482.086L444.005 28.2308H445.701ZM485.309 109.673L486.836 113.917V28.2308H488.362V118.16L489.889 122.403V28.2308H491.416V126.783L492.942 130.89V28.2308H494.469V135.27H492.603L454.437 28.2308H456.133L480.729 96.9438V28.2308H482.256V101.187L483.782 105.293V28.2308H485.309V109.673ZM443.411 36.7173L441.885 32.3372V135.27H440.358V28.2308H441.969L480.39 135.27H478.524L454.098 66.6936V135.27H452.571V62.4504L451.044 58.2072V135.27H449.518V53.964L447.991 49.5839V135.27H446.464V45.2037L444.938 40.9605V135.27H443.411V36.7173Z" fill="white"/>
<path d="M412.114 76.412L426.871 135.27H425.26L410.587 76.8226C410.983 76.7314 411.492 76.5945 412.114 76.412ZM415.167 74.9063L430.179 135.27H428.483L413.64 75.8645C414.036 75.5907 414.545 75.2714 415.167 74.9063ZM417.796 72.8532L433.487 135.27H431.79L416.439 73.9482C417.005 73.7657 417.457 73.4007 417.796 72.8532ZM425.684 91.058L436.71 135.27H435.098L419.153 71.7581C421.415 68.7468 422.546 65.4161 422.546 61.766C422.546 58.6634 421.839 55.9715 420.425 53.6902C419.068 51.4089 417.429 50.2682 415.506 50.2682H408.212V76.9595H409.06L423.564 135.27H421.952L408.212 80.3815V135.27H406.686V28.2308H415.506C421.217 28.2308 426.108 31.5159 430.179 38.0861C434.25 44.6562 436.286 52.5496 436.286 61.766C436.286 69.34 434.844 76.1382 431.96 82.1609C429.981 86.3585 427.889 89.3242 425.684 91.058ZM425.09 88.8679C431.536 82.6628 434.759 73.6288 434.759 61.766C434.759 53.0971 432.893 45.7513 429.161 39.7286C425.429 33.706 420.878 30.6946 415.506 30.6946H408.212V33.1585H415.506C420.369 33.1585 424.525 35.9873 427.974 41.6449C431.479 47.2113 433.232 53.9183 433.232 61.766C433.232 72.5338 430.349 80.7465 424.581 86.4041L425.09 88.8679ZM423.903 84.2141C429.105 78.6477 431.706 71.165 431.706 61.766C431.706 54.5571 430.094 48.3976 426.871 43.2874C423.705 38.1773 419.917 35.6223 415.506 35.6223H408.212V38.0861H415.506C419.577 38.0861 423.026 40.413 425.854 45.0669C428.737 49.7207 430.179 55.2871 430.179 61.766C430.179 70.3437 427.917 77.0051 423.394 81.7503L423.903 84.2141ZM422.715 79.5602C426.673 75.1801 428.652 69.2487 428.652 61.766C428.652 55.9259 427.352 50.9526 424.751 46.8463C422.207 42.6487 419.125 40.5499 415.506 40.5499H408.212V43.0137H415.506C418.729 43.0137 421.471 44.8844 423.733 48.6257C425.995 52.2758 427.126 56.6559 427.126 61.766C427.126 68.1537 425.486 73.2638 422.207 77.0964L422.715 79.5602ZM421.613 74.7695C424.27 71.4844 425.599 67.1499 425.599 61.766C425.599 57.2947 424.61 53.4621 422.631 50.2682C420.652 47.0744 418.277 45.4775 415.506 45.4775H408.212V47.9413H415.506C417.881 47.9413 419.888 49.3101 421.528 52.0477C423.224 54.694 424.072 57.9334 424.072 61.766C424.072 66.6024 423.055 70.1156 421.019 72.3056L421.613 74.7695ZM399.052 28.2308V135.27H397.526V28.2308H399.052ZM402.106 28.2308V135.27H400.579V28.2308H402.106ZM405.159 28.2308V135.27H403.632V28.2308H405.159ZM395.999 28.2308V135.27H394.473V28.2308H395.999Z" fill="white"/>
<path d="M356.471 136.366C347.085 136.366 339.085 131.073 332.469 120.488C325.91 109.811 322.631 96.8992 322.631 81.7513C322.631 66.6035 325.91 53.6913 332.469 43.0148C339.085 32.3383 347.085 27 356.471 27C365.857 27 373.858 32.3383 380.474 43.0148C387.089 53.6913 390.397 66.6035 390.397 81.7513C390.397 96.8992 387.089 109.811 380.474 120.488C373.858 131.073 365.857 136.366 356.471 136.366ZM324.073 81.7513C324.073 96.0779 327.239 108.351 333.572 118.572C339.905 128.792 347.538 133.902 356.471 133.902C365.405 133.902 373.038 128.792 379.371 118.572C385.704 108.351 388.87 96.0779 388.87 81.7513C388.87 67.3335 385.704 55.0144 379.371 44.7942C373.038 34.5739 365.405 29.4638 356.471 29.4638C347.594 29.4638 339.961 34.5739 333.572 44.7942C327.239 55.0144 324.073 67.3335 324.073 81.7513ZM356.471 131.575C347.934 131.575 340.64 126.739 334.59 117.066C328.596 107.302 325.599 95.5304 325.599 81.7513C325.599 67.9722 328.596 56.2463 334.59 46.5736C340.64 36.8096 347.934 31.9276 356.471 31.9276C365.009 31.9276 372.275 36.8096 378.269 46.5736C384.319 56.2463 387.344 67.9722 387.344 81.7513C387.344 95.5304 384.319 107.302 378.269 117.066C372.275 126.739 365.009 131.575 356.471 131.575ZM327.126 81.7513C327.126 94.8004 329.981 105.979 335.692 115.287C341.459 124.503 348.386 129.111 356.471 129.111C364.557 129.111 371.455 124.503 377.166 115.287C382.933 105.979 385.817 94.8004 385.817 81.7513C385.817 68.7023 382.933 57.5695 377.166 48.353C371.455 39.0453 364.557 34.3914 356.471 34.3914C348.386 34.3914 341.459 39.0453 335.692 48.353C329.981 57.5695 327.126 68.7023 327.126 81.7513ZM356.471 126.647C348.782 126.647 342.223 122.267 336.795 113.507C331.367 104.747 328.653 94.1616 328.653 81.7513C328.653 69.341 331.367 58.7558 336.795 49.9956C342.223 41.2353 348.782 36.8552 356.471 36.8552C364.161 36.8552 370.72 41.2353 376.148 49.9956C381.576 58.7558 384.29 69.341 384.29 81.7513C384.29 94.1616 381.576 104.747 376.148 113.507C370.72 122.267 364.161 126.647 356.471 126.647ZM330.179 81.7513C330.179 93.4316 332.752 103.424 337.897 111.728C343.043 120.032 349.234 124.184 356.471 124.184C363.709 124.184 369.9 120.032 375.046 111.728C380.191 103.424 382.764 93.4316 382.764 81.7513C382.764 70.071 380.191 60.0789 375.046 51.775C369.9 43.471 363.709 39.319 356.471 39.319C349.234 39.319 343.043 43.471 337.897 51.775C332.752 60.0789 330.179 70.071 330.179 81.7513ZM356.471 121.72C349.63 121.72 343.778 117.842 338.915 110.085C334.109 102.237 331.706 92.7928 331.706 81.7513C331.706 70.7098 334.109 61.3108 338.915 53.5544C343.778 45.7067 349.63 41.7829 356.471 41.7829C363.313 41.7829 369.137 45.7067 373.943 53.5544C378.806 61.3108 381.237 70.7098 381.237 81.7513C381.237 92.7928 378.806 102.237 373.943 110.085C369.137 117.842 363.313 121.72 356.471 121.72ZM333.233 81.7513C333.233 92.0628 335.494 100.914 340.018 108.306C344.598 115.606 350.082 119.256 356.471 119.256C362.861 119.256 368.317 115.606 372.84 108.306C377.42 100.914 379.71 92.0628 379.71 81.7513C379.71 71.4398 377.42 62.634 372.84 55.3338C368.317 47.9424 362.861 44.2467 356.471 44.2467C350.082 44.2467 344.598 47.9424 340.018 55.3338C335.494 62.634 333.233 71.4398 333.233 81.7513ZM356.471 116.792C350.478 116.792 345.361 113.37 341.12 106.526C336.88 99.6824 334.759 91.4241 334.759 81.7513C334.759 71.9873 336.88 63.729 341.12 56.9763C345.361 50.1324 350.478 46.7105 356.471 46.7105C362.521 46.7105 367.639 50.1324 371.823 56.9763C376.063 63.729 378.184 71.9873 378.184 81.7513C378.184 91.4241 376.063 99.6824 371.823 106.526C367.639 113.37 362.521 116.792 356.471 116.792ZM336.286 81.7513C336.286 90.694 338.265 98.3592 342.223 104.747C346.181 111.135 350.93 114.328 356.471 114.328C362.013 114.328 366.762 111.135 370.72 104.747C374.678 98.3592 376.657 90.694 376.657 81.7513C376.657 72.8086 374.678 65.1434 370.72 58.7558C366.762 52.3681 362.013 49.1743 356.471 49.1743C350.93 49.1743 346.181 52.3681 342.223 58.7558C338.265 65.1434 336.286 72.8086 336.286 81.7513Z" fill="white"/>
<path d="M294.161 80.5184V82.9822H297.638C300.465 82.9822 302.868 84.5791 304.847 87.7729C306.826 90.9667 307.816 94.8449 307.816 99.4075C307.816 103.879 306.826 107.712 304.847 110.905C302.868 114.008 300.465 115.559 297.638 115.559H294.161V118.023H297.638C300.804 118.023 303.518 116.198 305.78 112.548C308.098 108.898 309.257 104.518 309.257 99.4075C309.257 94.2974 308.098 89.8717 305.78 86.1304C303.518 82.389 300.804 80.5184 297.638 80.5184H294.161ZM294.161 85.446V113.095H297.638C300.013 113.095 302.048 111.772 303.745 109.126C305.441 106.48 306.289 103.24 306.289 99.4075C306.289 95.575 305.441 92.2899 303.745 89.5523C302.048 86.8148 300.013 85.446 297.638 85.446H294.161ZM310.869 61.766C310.869 55.9259 309.568 50.9526 306.968 46.8463C304.423 42.6487 301.313 40.5499 297.638 40.5499H294.161V43.0137H297.638C300.861 43.0137 303.603 44.8844 305.865 48.6257C308.183 52.2758 309.342 56.6559 309.342 61.766C309.342 66.3286 308.409 70.3437 306.543 73.8113C305.186 76.4576 303.632 78.2827 301.879 79.2864C304.536 80.7465 306.685 83.3472 308.325 87.0885C310.021 90.7386 310.869 94.8449 310.869 99.4075C310.869 105.248 309.568 110.221 306.968 114.327C304.423 118.434 301.313 120.487 297.638 120.487H294.161V122.951H297.638C301.709 122.951 305.158 120.669 307.985 116.107C310.869 111.453 312.311 105.886 312.311 99.4075C312.311 90.4648 309.964 83.7122 305.271 79.1496C309.003 75.0432 310.869 69.2487 310.869 61.766ZM313.922 61.766C313.922 54.5571 312.311 48.3976 309.088 43.2874C305.921 38.1773 302.105 35.6223 297.638 35.6223H294.161V38.0861H297.638C301.766 38.0861 305.243 40.413 308.07 45.0669C310.954 49.6295 312.396 55.1959 312.396 61.766C312.396 65.7811 311.774 69.6137 310.53 73.2638C309.682 75.8189 308.749 77.7352 307.731 79.0127C311.858 84.3053 313.922 91.1036 313.922 99.4075C313.922 106.616 312.339 112.776 309.173 117.886C306.006 122.905 302.161 125.414 297.638 125.414H294.161V127.878H297.638C302.557 127.878 306.741 125.095 310.19 119.529C313.696 113.962 315.449 107.255 315.449 99.4075C315.449 91.4686 313.611 84.6247 309.936 78.8758C312.593 73.6744 313.922 67.9712 313.922 61.766ZM316.976 61.766C316.976 53.1883 315.081 45.8881 311.293 39.8655C307.561 33.7516 303.01 30.6946 297.638 30.6946H294.161V33.1585H297.638C302.557 33.1585 306.741 35.9873 310.19 41.6449C313.696 47.2113 315.449 53.9183 315.449 61.766C315.449 67.2412 314.318 72.8988 312.056 78.7389C315.279 84.8528 316.891 91.7424 316.891 99.4075C316.891 107.985 314.997 115.285 311.208 121.308C307.476 127.331 302.953 130.342 297.638 130.342H294.161V132.806H297.638C303.405 132.806 308.325 129.566 312.396 123.088C316.467 116.517 318.502 108.624 318.502 99.4075C318.502 91.4686 316.976 84.5334 313.922 78.6021C315.958 73.4919 316.976 67.8799 316.976 61.766ZM294.161 50.2682V73.2638H297.638C299.617 73.2638 301.285 72.1231 302.642 69.8418C304.056 67.5605 304.762 64.8686 304.762 61.766C304.762 58.6634 304.056 55.9715 302.642 53.6902C301.228 51.4089 299.56 50.2682 297.638 50.2682H294.161ZM294.161 45.4775V47.9413H297.638C300.013 47.9413 302.048 49.3101 303.745 52.0477C305.441 54.694 306.289 57.9334 306.289 61.766C306.289 65.5986 305.441 68.8837 303.745 71.6213C302.048 74.2676 300.013 75.5907 297.638 75.5907H294.161V78.0545H297.638C300.465 78.0545 302.868 76.4576 304.847 73.2638C306.826 70.07 307.816 66.2374 307.816 61.766C307.816 57.2947 306.826 53.4621 304.847 50.2682C302.868 47.0744 300.465 45.4775 297.638 45.4775H294.161ZM315.703 78.4652C318.53 84.7616 319.944 91.7424 319.944 99.4075C319.944 109.354 317.767 117.841 313.413 124.867C309.06 131.802 303.801 135.27 297.638 135.27H292.634V28.2308H297.638C303.405 28.2308 308.325 31.5159 312.396 38.0861C316.467 44.6562 318.502 52.5496 318.502 61.766C318.502 67.6062 317.569 73.1726 315.703 78.4652ZM285.001 28.2308V135.27H283.474V28.2308H285.001ZM288.054 28.2308V135.27H286.527V28.2308H288.054ZM291.107 28.2308V135.27H289.581V28.2308H291.107ZM281.948 28.2308V135.27H280.421V28.2308H281.948Z" fill="white"/>
<path d="M238.464 28.2308V135.27H236.937V28.2308H238.464ZM247.624 28.2308V135.27H246.097V28.2308H247.624ZM244.57 28.2308V135.27H243.044V28.2308H244.57ZM241.517 28.2308V135.27H239.991V28.2308H241.517ZM250.677 87.7729V90.2367H269.082V92.7005H250.677V113.095H275.443V115.559H250.677V118.023H275.443V120.487H250.677V122.951H275.443V125.414H250.677V127.878H275.443V130.342H250.677V132.806H275.443V135.27H249.15V28.2308H275.443V30.6946H250.677V33.1585H275.443V35.6223H250.677V38.0861H275.443V40.5499H250.677V43.0137H275.443V45.4775H250.677V47.9413H275.443V50.2682H250.677V70.5262H269.082V72.99H250.677V75.4539H269.082V77.9177H250.677V80.3815H269.082V82.8453H250.677V85.3091H269.082V87.7729H250.677Z" fill="white"/>
<path d="M199.74 130.342V132.806C208.504 132.532 215.967 127.468 222.131 117.612C228.294 107.757 231.375 95.8031 231.375 81.7503C231.375 67.6974 228.294 55.7434 222.131 45.8881C215.967 36.0329 208.504 30.9684 199.74 30.6946V33.1585C208.165 33.4322 215.289 38.223 221.113 47.5307C226.937 56.8384 229.849 68.2449 229.849 81.7503C229.849 95.2556 226.937 106.662 221.113 115.97C215.289 125.278 208.165 130.068 199.74 130.342ZM199.74 125.414V127.878C207.712 127.604 214.469 123.042 220.01 114.19C225.551 105.339 228.322 94.5256 228.322 81.7503C228.322 68.9749 225.551 58.1616 220.01 49.3101C214.469 40.4586 207.712 35.896 199.74 35.6223V38.0861C207.316 38.3598 213.706 42.6943 218.908 51.0895C224.166 59.3935 226.795 69.6137 226.795 81.7503C226.795 93.7955 224.166 104.016 218.908 112.411C213.649 120.806 207.26 125.141 199.74 125.414ZM199.74 120.487V122.951C206.864 122.677 212.886 118.616 217.805 110.768C222.781 102.83 225.269 93.1568 225.269 81.7503C225.269 70.3437 222.781 60.7166 217.805 52.8689C212.886 44.93 206.864 40.8236 199.74 40.5499V43.0137C206.468 43.2875 212.151 47.12 216.787 54.5115C221.424 61.9029 223.742 70.9825 223.742 81.7503C223.742 92.4268 221.395 101.506 216.702 108.989C212.066 116.38 206.412 120.213 199.74 120.487ZM199.74 115.559V118.023C206.016 117.749 211.331 114.145 215.685 107.21C220.038 100.274 222.215 91.788 222.215 81.7503C222.215 71.7125 220.038 63.2261 215.685 56.2909C211.331 49.3557 206.016 45.7513 199.74 45.4775V47.9413C205.677 48.2151 210.652 51.5914 214.667 58.0703C218.738 64.458 220.774 72.3513 220.774 81.7503C220.774 91.1492 218.738 99.0882 214.667 105.567C210.596 111.955 205.62 115.285 199.74 115.559ZM199.74 50.2682V113.095C205.168 112.822 209.776 109.719 213.564 103.788C217.353 97.765 219.247 90.4192 219.247 81.7503C219.247 73.0813 217.353 65.7811 213.564 59.8497C209.776 53.8271 205.168 50.6333 199.74 50.2682ZM198.213 135.27V28.2308H199.74C209.013 28.2308 216.844 33.4322 223.233 43.835C229.679 54.1465 232.902 66.7849 232.902 81.7503C232.902 96.7156 229.651 109.4 223.148 119.802C216.702 130.114 208.9 135.27 199.74 135.27H198.213ZM190.58 28.2308V135.27H189.053V28.2308H190.58ZM193.633 28.2308V135.27H192.107V28.2308H193.633ZM196.687 28.2308V135.27H195.16V28.2308H196.687ZM187.527 28.2308V135.27H186V28.2308H187.527Z" fill="white"/>
<defs>
<linearGradient id="paint0_linear_359_4" x1="149" y1="82.5" x2="0" y2="82.5" gradientUnits="userSpaceOnUse">
<stop stop-color="#B68170"/>
<stop offset="0.25" stop-color="#D19B8A"/>
<stop offset="0.5" stop-color="#E3AD9B"/>
<stop offset="0.75" stop-color="#966151"/>
<stop offset="1" stop-color="#996454"/>
</linearGradient>
</defs>
</svg>
